<svg xmlns="http://www.w3.org/2000/svg" xmlns:xlink="http://www.w3.org/1999/xlink" id="Layer_1" x="0px" y="0px" viewBox="0 0 230 158.4" xml:space="preserve"> <g> <ellipse fill="#009648" cx="115" cy="92.8" rx="115" ry="65.5"></ellipse> <path fill="#F4E01C" d="M115,155.7c-60.5,0-109.7-28.2-109.7-62.8C5.3,58.2,54.5,30,115,30s109.7,28.2,109.7,62.8 C224.7,127.5,175.5,155.7,115,155.7z M115,31.4C55.3,31.4,6.7,59,6.7,92.8s48.6,61.4,108.3,61.4s108.3-27.6,108.3-61.4 S174.7,31.4,115,31.4z"></path> <path fill="#363D8B" d="M103.1,11.1c0,0-3.5,4.6-3.8,9.2s1.7,7.7-0.8,10.9s-9.2,0.2-8.1-5.4c0,0-18.4,41.5,11.7,52.8 c0,0-8.6-11.7-0.8-21.7c0,0-0.2,4,1.9,5.2c0,0,0-17.7,12.9-23c0,0-1.9,8.3,1,9.6s2.3-4.2,2.3-4.2s2.5,2.7,1.9,10 c0,0,0.6,2.9,2.7,2.1c2.1-0.8,2.5-3.1,2.5-3.1s7.5,19-3.8,25.7c0,0-0.6,1.3,1.7,0.8c2.3-0.4,30.7-11.7,12.7-45.3c0,0,0.2,7.7-4,8.8 c0,0,2.5-28.6-24.6-43.4c0,0,2.7,14.2-0.6,18.8S102.3,14,103.1,11.1z"></path> <g> <path fill="#FFFFFF" d="M70.8,123c-0.8,0.4-1.7,0.8-2.6,1s-1.8,0.4-2.7,0.4c-0.1,1,0,1.8,0.3,2.4c0.2,0.5,0.5,0.7,1,0.7 s1.2-0.5,2.1-1.5c0.4-0.5,0.9-0.7,1.4-0.8c0.6-0.1,1.1,0.1,1.5,0.4c0.5,0.3,0.7,0.8,0.8,1.4c0.1,0.6-0.1,1.4-0.6,2.3 c-0.6,1-1.5,1.8-2.6,2.4c-1.1,0.6-2.3,0.8-3.5,0.6c-1.3-0.2-2.4-0.8-3.3-1.8c-0.5-0.5-0.9-1.2-1.2-2s-0.5-1.8-0.7-2.8 c-0.2-1.5-0.1-3,0.3-4.6c0.3-1.6,0.9-3.1,1.7-4.5c0.7-1.3,1.7-2.4,2.8-3.3s2.4-1.5,3.9-1.8c1.1-0.2,2.2-0.1,3.1,0.2 c0.7,0.3,1.3,0.7,1.9,1.3c0.7,0.8,1.1,1.7,1.1,2.7s-0.2,1.9-0.6,2.9c-0.4,1.1-1,2-1.7,2.8C72.5,121.9,71.7,122.5,70.8,123z M70.5,115.3c-0.6,0-1.1,0.3-1.6,0.7c-0.5,0.5-0.9,1-1.3,1.6s-0.7,1.2-0.8,1.8c0.7-0.1,1.3-0.3,1.9-0.7c0.6-0.3,1.2-0.8,1.7-1.4 c0.4-0.5,0.6-1,0.7-1.4C71.1,115.6,70.9,115.4,70.5,115.3z"></path> <path fill="#FFFFFF" d="M84.5,113c0.4-0.7,0.9-1.1,1.4-1.4s1-0.3,1.4-0.1c0.4,0.2,0.7,0.6,0.8,1.3c0.1,0.7,0,1.6-0.3,2.8 c-0.2,0.7-0.6,1.7-1.3,3c-0.6,1.3-1.4,2.8-2.3,4.3c0.9,2.4,1.9,4.7,2.9,6.8c0.4,0.9,0.5,1.6,0.4,2s-0.4,0.6-0.8,0.7 c-0.4,0.1-0.9,0.1-1.4,0c-0.6-0.1-1.1-0.4-1.6-0.6c-0.4-0.3-0.9-0.7-1.4-1.4c-0.5-0.6-0.9-1.4-1.4-2.3c-0.7,1-1.4,1.8-2,2.5 s-1.2,1.2-1.7,1.4s-1,0.4-1.6,0.5s-1,0-1.5-0.1c-0.4-0.1-0.6-0.4-0.7-0.8c-0.1-0.4,0.1-1,0.6-1.9c1.3-2.2,2.8-4.6,4.4-7.2 c-1.1-3.2-1.8-5.6-2.1-7.1c-0.2-1.2-0.1-2.1,0.1-2.8c0.3-0.6,0.7-1,1.2-1.1s1.1,0,1.6,0.3s0.9,0.9,1.2,1.6 c0.4,1.2,0.9,2.4,1.4,3.7C82.9,115.5,83.7,114.2,84.5,113z"></path> <path fill="#FFFFFF" d="M92.4,144.3c-0.3,0.2-0.7,0.3-1.1,0.2c-0.4,0-0.8-0.1-1.1-0.3c-0.4-0.2-0.7-0.4-1-0.8 c-0.3-0.4-0.5-0.9-0.7-1.5c-0.4-1.5-0.6-3.4-0.6-5.9s0.1-5.1,0.3-7.9c0.2-2.8,0.6-5.5,1.1-8s1-4.6,1.7-6.2 c0.3-0.7,0.8-1.4,1.3-1.8c0.5-0.5,1.1-0.8,1.6-1c0.6-0.1,1-0.1,1.4,0.2c0.4,0.3,0.5,0.9,0.4,1.7l-0.1,1.2l0.1-0.2 c0.8-0.9,1.8-1.6,2.9-2.1s2.2-0.8,3.4-0.7c1.2,0.1,2.2,0.5,3.2,1.4c0.8,0.7,1.3,1.8,1.7,3.1c0.3,1.3,0.4,3,0.1,4.9 c-0.2,1.5-0.6,2.9-1.3,4.4c-0.7,1.4-1.5,2.7-2.4,3.9c-1,1.1-2.1,2-3.3,2.6c-1.3,0.7-2.8,0.9-4.3,0.7c-0.5-0.1-1-0.2-1.5-0.4 c-0.4,4.6-0.7,8.1-0.9,10.5c0,0.5-0.1,0.8-0.2,1.2C92.8,143.9,92.6,144.1,92.4,144.3z M101.7,115.9c-0.5-0.4-1-0.3-1.6,0.1 s-1.2,1.1-1.8,2.1c-0.6,0.9-1.2,2-1.7,3.1c-0.6,1.1-1,2.2-1.4,3.2s-0.6,1.8-0.7,2.4c0.4,0.6,0.8,1.1,1.2,1.3 c0.4,0.2,0.9,0.2,1.4,0c0.9-0.4,1.8-1.2,2.5-2.3c0.7-1.1,1.4-2.3,1.8-3.7c0.5-1.3,0.7-2.6,0.8-3.7 C102.3,117.1,102.1,116.3,101.7,115.9z"></path> <path fill="#FFFFFF" d="M117.1,111.8c0.8-0.2,1.4-0.2,2,0.1c0.6,0.3,1,0.7,1.2,1.3s0.3,1.2,0.1,1.8c-0.2,0.6-0.6,1.1-1.2,1.5 c-0.4,0.3-0.8,0.5-1.1,0.6c-0.5,0.2-0.9,0.5-1.3,0.8s-0.8,0.8-1.2,1.5c-0.7,1.1-1.2,2.3-1.5,3.7c-0.3,1.4-0.6,2.8-0.7,4.2 s-0.3,2.7-0.3,4c-0.1,0.5-0.3,0.8-0.7,1c-0.4,0.2-0.9,0.3-1.5,0.3c-0.6-0.1-1.1-0.3-1.7-0.6c-0.5-0.4-0.9-0.9-1.1-1.7 c-0.2-0.7-0.3-1.9-0.3-3.5c0-1.6,0.1-3.4,0.2-5.4c0.1-1.9,0.3-3.7,0.6-5.3c0.3-1.6,0.6-2.7,1-3.4c0.5-0.7,1.1-1.1,1.8-1.2 c0.7-0.1,1.2,0.1,1.7,0.6s0.7,1.3,0.6,2.4v1.2c0.5-1.2,1.1-2.1,1.7-2.7C115.9,112.3,116.5,112,117.1,111.8z"></path> <path fill="#FFFFFF" d="M128.9,123.4c-0.8,0.4-1.7,0.8-2.6,1s-1.8,0.4-2.7,0.4c-0.1,1,0,1.8,0.3,2.4c0.2,0.5,0.5,0.7,1,0.7 s1.2-0.5,2.1-1.5c0.4-0.5,0.9-0.7,1.4-0.8c0.6-0.1,1.1,0.1,1.5,0.4c0.5,0.3,0.7,0.8,0.8,1.4s-0.1,1.4-0.6,2.3 c-0.6,1-1.5,1.8-2.6,2.4c-1.1,0.6-2.3,0.8-3.5,0.6c-1.3-0.2-2.4-0.8-3.3-1.8c-0.5-0.5-0.9-1.2-1.2-2c-0.3-0.8-0.5-1.8-0.7-2.8 c-0.2-1.5-0.1-3,0.3-4.6c0.3-1.6,0.9-3.1,1.7-4.5c0.7-1.3,1.7-2.4,2.8-3.3c1.1-0.9,2.4-1.5,3.9-1.8c1.1-0.2,2.2-0.1,3.1,0.2 c0.7,0.3,1.3,0.7,1.9,1.3c0.7,0.8,1.1,1.7,1.1,2.7s-0.2,1.9-0.6,2.9c-0.4,1.1-1,2-1.7,2.8C130.7,122.3,129.9,122.9,128.9,123.4z M128.6,115.7c-0.6,0-1.1,0.3-1.6,0.7c-0.5,0.5-0.9,1-1.3,1.6s-0.7,1.2-0.8,1.8c0.7-0.1,1.3-0.3,1.9-0.7c0.6-0.3,1.2-0.8,1.7-1.4 c0.4-0.5,0.6-1,0.7-1.4C129.2,116,129,115.7,128.6,115.7z"></path> <path fill="#FFFFFF" d="M133.9,125.5c0.3-1.1,0.8-1.8,1.4-2.3c0.6-0.5,1.2-0.7,1.8-0.7s1,0.2,1.4,0.7c0.3,0.4,0.3,1,0.1,1.8 c-0.3,0.8-0.4,1.4-0.3,1.9c0.1,0.5,0.2,0.9,0.5,1.2s0.6,0.4,1,0.5c0.4,0,0.8-0.1,1.2-0.4c0.4-0.3,0.5-0.7,0.6-1.2 c0-0.5-0.1-0.9-0.4-1.4c-0.2-0.4-0.5-0.8-0.8-1.2c-0.7-0.8-1.5-1.5-2.3-2.2c-0.5-0.4-1-0.8-1.3-1.2c-0.8-0.8-1.4-1.8-1.7-2.8 s-0.4-2.1-0.3-3.2c0.1-1.1,0.5-2,1.1-2.9s1.5-1.5,2.5-2c0.9-0.4,1.9-0.6,2.9-0.5c1,0,2,0.3,2.9,0.7c0.9,0.5,1.6,1.1,2.2,2 c0.6,0.9,0.9,1.9,0.9,3.1s-0.3,2.1-0.8,2.7s-1.1,1-1.7,1.1c-0.7,0.1-1.2,0-1.7-0.3s-0.6-0.8-0.5-1.4s0.1-1,0.1-1.5 c0-0.9-0.3-1.5-0.7-1.8s-0.9-0.5-1.4-0.3c-0.5,0.1-0.8,0.4-1.1,0.9c-0.2,0.5-0.1,1.1,0.3,1.9c0.4,0.6,0.9,1.2,1.5,1.9 c0.6,0.6,1.2,1.2,1.8,1.8c0.7,0.6,1.2,1.1,1.6,1.5c0.8,1,1.3,2.1,1.5,3.3s0.1,2.4-0.2,3.6c-0.4,1.2-1.1,2.2-2.1,3 c-1.3,1-2.6,1.5-3.9,1.5c-1.3,0-2.5-0.3-3.6-1s-1.9-1.6-2.4-2.8C133.6,128.3,133.5,127,133.9,125.5z"></path> <path fill="#FFFFFF" d="M147.4,125.6c0.3-1.1,0.8-1.8,1.4-2.3c0.6-0.5,1.2-0.7,1.8-0.7s1,0.2,1.4,0.7c0.3,0.4,0.3,1,0.1,1.8 c-0.3,0.8-0.4,1.4-0.3,1.9c0.1,0.5,0.2,0.9,0.5,1.2c0.3,0.3,0.6,0.4,1,0.5c0.4,0,0.8-0.1,1.2-0.4c0.4-0.3,0.5-0.7,0.6-1.2 c0-0.5-0.1-0.9-0.4-1.4c-0.2-0.4-0.5-0.8-0.8-1.2c-0.7-0.8-1.5-1.5-2.3-2.2c-0.5-0.4-1-0.8-1.3-1.2c-0.8-0.8-1.4-1.8-1.7-2.8 s-0.4-2.1-0.3-3.2c0.1-1.1,0.5-2,1.1-2.9s1.5-1.5,2.5-2c0.9-0.4,1.9-0.6,2.9-0.5c1,0,2,0.3,2.9,0.7c0.9,0.5,1.6,1.1,2.2,2 c0.6,0.9,0.9,1.9,0.9,3.1s-0.3,2.1-0.8,2.7s-1.1,1-1.7,1.1c-0.7,0.1-1.2,0-1.7-0.3s-0.6-0.8-0.5-1.4s0.1-1,0.1-1.5 c0-0.9-0.3-1.5-0.7-1.8s-0.9-0.5-1.4-0.3c-0.5,0.1-0.8,0.4-1.1,0.9c-0.2,0.5-0.1,1.1,0.3,1.9c0.4,0.6,0.9,1.2,1.5,1.9 c0.6,0.6,1.2,1.2,1.8,1.8c0.7,0.6,1.2,1.1,1.6,1.5c0.8,1,1.3,2.1,1.5,3.3c0.2,1.2,0.1,2.4-0.2,3.6c-0.4,1.2-1.1,2.2-2.1,3 c-1.3,1-2.6,1.5-3.9,1.5c-1.3,0-2.5-0.3-3.6-1s-1.9-1.6-2.4-2.8C147.1,128.4,147,127.1,147.4,125.6z"></path> </g> <g> <g> <g> <path fill="#F4E01C" d="M103.2,141.5c0,0.6-0.5,1-1.4,1H100v-3.6h1.7c0.9,0,1.4,0.4,1.4,0.9c0,0.4-0.2,0.6-0.5,0.8 C102.9,140.8,103.2,141.1,103.2,141.5z M100.7,139.6v0.8h0.8c0.4,0,0.6-0.1,0.6-0.4c0-0.3-0.2-0.4-0.6-0.4L100.7,139.6 L100.7,139.6z M102.3,141.5c0-0.3-0.2-0.4-0.7-0.4h-1v0.9h1C102.1,141.9,102.3,141.8,102.3,141.5z"></path> <path fill="#F4E01C" d="M107.7,141.3v1.3h-0.8v-1.3l-1.4-2.3h0.9l1,1.6l1-1.6h0.8L107.7,141.3z"></path> </g> <g> <g> <g> <g> <path fill="#F4E01C" d="M120.8,136.2c0,0-0.3-0.2-0.7-0.2c-0.4,0-1.2,0.3-2.2,1s-2.6,2.7-2.8,3.7c-0.2,1.1,0.5,2,1.3,1.9 c0.9-0.1,1.4-0.4,1.4-0.4s0.4-0.4,0.2,0.1c-0.2,0.5-0.8,1.2-1.5,1.4s-1.6,0-2.3-0.6s-0.4-2.4,0-3.4s2-2.8,3.6-3.6 s2.3-0.9,2.7-0.8c0.4,0.1,0.6,0.5,0.6,0.7S120.9,136.1,120.8,136.2z"></path> <path fill="#F4E01C" d="M121.2,140.1c0,0-0.8,0.3-1.2,0.7s-0.3,0.6,0.2,0.3s1.1-0.5,1.1-0.5s0.3-0.1,0.3,0.2 s-0.2,0.4-0.2,0.4s0,0.1,0.2,0s2-0.9,2-0.9s0.1-0.8,0.6-0.9s0.9,0.2,0.9,0.7c0,0,0.4-0.5,0.7-0.6c0.3-0.1,0.4-0.2,0.4,0.1 s0.1,1.2,0.1,1.4c0,0.1,0,0.4-0.5,0.2s-0.7-0.6-0.7-0.6s-0.4,0-0.7,0.4c-0.2,0.4-0.2,1.3-0.5,1.6s-0.6,0.6-1,0.5 c-0.3-0.1-0.3-0.6-0.1-1.1c0.2-0.5,0.4-0.8,0.4-0.8s0-0.2-0.2,0s-1.8,1.1-1.8,1.1s-0.4,0.2-0.9,0.1c-0.5-0.1-0.1-0.5-0.1-0.5 s-0.5,0.4-1.1,0.5s-0.9-0.2-0.8-0.9s1-1.4,1.7-1.5C120.8,139.7,121.2,139.9,121.2,140.1z"></path> <path fill="#F4E01C" d="M126.6,140.7l0.1-1.4c0,0,0.2-0.6,0.8-0.5s0.6,0.6,0.6,0.9c-0.1,0.4-0.4,1.7-0.4,1.7 s-0.1,0.4,0.3-0.1c0.5-0.5,1.1-1.4,1.3-1.8c0.2-0.4,0.6-0.5,0.5,0s-0.7,1.6-1.4,2.4c-0.7,0.8-1.3,1.1-1.8,0.7 C126.1,142.2,126.6,140.7,126.6,140.7z"></path> <path fill="#F4E01C" d="M131.6,138.8c0,0,0.1-0.3,0.4-0.2c0.2,0.1,0.5,0.4,0.8,0.2s0.2-0.6,0.2-0.6s-0.2,0.1-0.2,0.3 c-0.1,0.2-0.3,0-0.5-0.3c-0.2-0.2-0.7-0.1-0.9,0.3C131.2,138.9,131.6,138.8,131.6,138.8z"></path> <path fill="#F4E01C" d="M132.6,139.5c0,0-0.7,0.2-1.1,0.6c-0.4,0.4-0.3,0.5,0.4,0.2s0.9-0.5,1-0.4s0.2,0.3,0,0.5 c-0.2,0.1-0.4,0.4-0.1,0.3c0.2-0.1,2.4-1.1,2.5-1.2c0.1,0,0.2-0.2,0.2-0.2s-0.1,0-0.1-0.2s0-0.2,0.3-0.1 c0.3,0.1,1,0.7,0.9,1.1c-0.1,0.5-0.1,1.9-1.5,1.9c-1.5,0-1-1.2-0.8-1.5c0,0-1.2,0.8-1.7,1s-0.8,0.1-0.8-0.2s0.1-0.4,0.1-0.4 s-0.8,0.4-1.3,0.5s-0.8-0.1-0.9-0.6c0-0.5,0.3-1.1,1.1-1.5s1.1-0.4,1.4-0.4C132.7,139.2,132.6,139.5,132.6,139.5z M135.9,140.2c0,0-0.3,0.3-0.5,0.6s0,0.4,0.2,0.1s0.4-0.5,0.4-0.5S136,140.1,135.9,140.2z"></path> </g> <g> <path fill="#F4E01C" d="M140.6,139.8l0.8-2.3c0,0,0.2-0.3,0.5-0.2s0.2,0.3,0,0.6s-1.2,2.7-1.2,2.7s-0.1,0.4,0.1,0.3 s0.9-0.7,1.2-0.8c0.2,0,0.3-0.1,0.3-0.1s-0.2-0.1-0.1-0.2c0.1-0.1,0.1-0.1,0.4,0.1c0.2,0.2,0.5,0.5,0.5,0.7s-0.3,0.9-0.6,1.1 c-0.3,0.3-0.9,0.1-0.9,0.1s-0.3,0-0.3-0.1s0-0.3,0-0.3s0-0.1-0.3,0.1c-0.2,0.2-0.4,0.3-0.6,0.3s-0.4-0.2-0.4-0.3s0-0.2,0-0.2 s-0.1,0.2-0.4,0.3c-0.3,0.1-0.4,0.2-0.7,0s-0.2-0.7,0.3-1.1C139.5,140,140,139.7,140.6,139.8z M139.8,140.8l0.4-0.3 c0,0,0.1-0.2,0-0.2s-0.6,0.5-0.6,0.5S139.7,140.9,139.8,140.8z M142.2,141.2c0.1-0.1,0.2-0.4,0.2-0.4c0.1-0.2,0-0.2-0.1-0.1 c-0.1,0.1-0.2,0.3-0.2,0.3C142,141.2,142,141.3,142.2,141.2z"></path> </g> <g> <path fill="#F4E01C" d="M147.7,136.3c0.1,0.1,0.2,0.2,0.1,0.4s0,0.3,0,0.3s0.7-0.4,1.1-0.5c0.4-0.1,0.7,0.1,0.9,0.3 c0.2,0.3,0.2,0.8-0.3,1.4s-1.4,1.2-1.4,1.2s0.7-0.2,1.1-0.1c0.4,0.1,0.4,0.6,0.3,1s-0.9,1.1-1.9,1.6c-1,0.4-1.9,0.3-1.9,0.3 s-0.1,0.2-0.3,0.4c-0.2,0.3-0.2,0.2-0.5-0.1s-0.1-0.8-0.1-0.8l2.1-5.3C147.1,136.2,147.5,136.2,147.7,136.3z M147.3,139.2 c0.4-0.3,1.3-1,1.6-1.4s-0.1-0.7-0.5-0.6c-0.4,0.1-0.9,0.6-1.2,0.9c-0.3,0.3-0.6,1.6-0.6,1.6S146.9,139.6,147.3,139.2z M146.3,140.3l-0.5,1.5c0,0,0.9-0.1,1.5-0.5s1.1-0.8,1.2-1.2s0.2-0.6-0.3-0.5C147.8,139.8,146.9,140,146.3,140.3z"></path> <path fill="#F4E01C" d="M150.1,140l0.4-0.9c0,0,0.2-0.2,0.4-0.1s0.2,0.4,0.2,0.4s0.3-0.3,0.5-0.3s0.3,0.1,0.3,0.1v1.1 c0,0-0.1,0.1-0.4,0c-0.3-0.2-0.3-0.3-0.5-0.3s-0.4,0.5-0.5,0.8c-0.1,0.4-0.2,0.7-0.5,0.8c-0.3,0-0.4-0.1-0.4-0.5 C149.7,140.8,150.1,140,150.1,140z"></path> <path fill="#F4E01C" d="M154.1,139.2c0,0.1-0.5,0.4-0.7,0.5c-0.3,0.1-0.4,0.3-0.2,0.3s0.6-0.4,0.8-0.5s0.3,0.2,0.3,0.4 s0.1,0.2,0.1,0.2s0.2-0.3,0.4-0.3s0.6-0.3,0.6-0.3c0.4-0.9,0.9-0.8,1.2-0.9c0.3,0,0.2,0.1,0.2,0.3s-0.3,0.1-0.4,0.2 c-0.1,0.1-0.2,0.6-0.2,0.6s0.1-0.1,0.5-0.3s0.7-0.3,0.8-0.3s0.1,0.2,0,0.3s-0.3,0.1-0.6,0.2s-0.5,0.5-0.5,0.5s0,0.4,0,0.7 s-0.3,0.6-0.6,0.6c-0.3,0.1-0.7-0.2-0.7-0.6s0.7-0.9,0.7-0.9v-0.1c0,0-0.5,0.3-0.6,0.4c-0.1,0-0.8,0.5-1.1,0.6 s-0.6-0.3-0.6-0.3s-0.1,0.1-0.6,0.2c-0.5,0.1-0.6-0.1-0.6-0.4s0.5-0.9,1-1.1c0.5-0.2,0.7-0.1,0.7-0.1 S154.1,139.1,154.1,139.2z M155.8,140.4c0,0-0.3,0.4-0.3,0.5s0.2,0.1,0.3-0.1C155.8,140.6,155.8,140.4,155.8,140.4z"></path> <path fill="#F4E01C" d="M157.8,138.9c0,0-0.6,0.8-0.7,1.4c-0.2,0.6,0.5,0.9,0.8,0.7c0.4-0.2,1.1-0.8,1.1-0.8s-0.3,1-0.3,1.2 s0.2,0.5,0.3,0.5s0.2-0.2,0.4-0.7c0.2-0.6,1.1-3,1.7-3.9s0.9-1.4,0.9-1.4s0.1-0.1-0.1-0.3c-0.2-0.1-0.5-0.3-0.6-0.2 c-0.1,0-0.3,0.3-0.6,0.7s-1,2.3-1.2,2.9c-0.2,0.6-0.3,0.7-0.7,0.9s-0.8,0.4-0.8,0.4s-0.3,0.1-0.1-0.1s0.3-0.5,0.3-0.5 s0.2-0.3,0.2-0.4c0-0.1,0-0.1-0.2-0.2C158,138.9,157.8,138.8,157.8,138.9z"></path> <path fill="#F4E01C" d="M157.9,138.5c0,0,0-0.2-0.1-0.1s-0.1,0.2-0.1,0.2h-0.1c0,0,0-0.3,0.2-0.4c0.2-0.2,0.5-0.2,0.5-0.2 s0.1,0,0.2,0.1c0.1,0.1,0.2,0.3,0.1,0.5c-0.1,0.2-0.3,0.2-0.4,0.2C158,138.6,157.9,138.5,157.9,138.5z"></path> </g> </g> </g> </g> </g> </g> <g> <g> <path fill="#F9E000" d="M31.1,113.6c-0.7,0-1.3,0-2,0c-3.5-0.4-6.2-1.9-8.3-4.3c-2.8-3.3-4.4-7.7-4.7-13.3 c-0.1-2.2,0-4.8,0.5-7.9c0.4-3.1,1.5-6.3,3.2-9.7c1.7-3.4,3.9-6.1,6.7-8.1c1.5-1.1,3.3-1.9,5.4-2.5c1.1-0.3,2.1-0.5,3.1-0.5 c1-0.1,2.3,0,3.8,0.3c1.5,0.2,3,1.1,4.5,2.6c1.7,1.9,2.6,3.9,2.7,6.2c0,0.2,0,0.9,0,2.3c0,1.3-0.9,2.5-2.6,3.4 c-0.6,0.3-1.2,0.4-1.8,0.5c-0.3,0-0.8,0-1.4-0.1c-0.6-0.1-1.3-0.5-1.9-1.1c-0.5-0.5-0.7-1.1-0.8-1.9c0-0.3,0-0.6,0-0.9s0-0.7,0-1 c-0.1-1-0.4-1.9-1-2.7c-0.4-0.5-1-0.8-1.7-0.7c-0.5,0-1.1,0.2-1.8,0.6c-3.3,2.3-5.7,6.7-7.1,13.2c-0.5,2.9-0.8,5.7-0.6,8.3 c0.1,2.6,0.7,4.7,1.5,6.5c0.9,1.8,2.2,2.8,4,3H31c0.5,0,1-0.4,1.6-1c0.5-0.7,1.2-1.7,2-3c0.7-1.1,1.7-1.6,3-1.7 c1.1-0.1,2.1,0.3,3,1c0.7,0.6,1.1,1.4,1.1,2.5c0,0.4,0,0.8-0.1,1.2c-0.6,2.9-2.1,5.2-4.5,6.8C35.4,112.7,33.3,113.4,31.1,113.6z"></path> </g> <g> <path fill="#F9E000" d="M198,111.7c-2-0.2-3.7-0.7-5.1-1.7c-1.4-0.9-2.6-2.2-3.5-3.7s-1.5-3.2-2-5.1c-0.4-1.9-0.6-3.8-0.5-5.9 c0.1-4,0.8-7.4,1.9-10.3c1.1-2.9,2.6-5.2,4.4-7c1.8-1.8,3.7-3,5.7-3.6s4-0.7,6-0.2c1.9,0.5,3.6,1.6,5.1,3.3 c1.5,1.7,2.5,3.9,3.2,6.7c0.6,2.8,0.7,6.3,0.1,10.3c-0.5,3.7-1.5,6.9-2.9,9.5c-1.4,2.7-3.1,4.6-5.2,6 C203.1,111.4,200.7,111.9,198,111.7z M197.9,84.2c-0.6,1.5-1.2,3.3-1.6,5.2c-0.4,1.9-0.7,3.9-0.8,5.9s-0.1,3.9,0.1,5.6 c0.2,1.7,0.5,3.1,1.1,4.2c0.5,1.1,1.2,1.7,2.1,1.8c0.9,0.1,1.8-0.4,2.8-1.5c1-1,1.8-2.6,2.6-4.5c0.8-2,1.3-4.4,1.5-7.2 c0.3-3.9,0.3-7-0.2-9.2c-0.4-2-1-3.2-2-3.8c-0.9-0.6-1.9-0.6-3,0C199.6,81.3,198.7,82.4,197.9,84.2z"></path> </g> <g> <path fill="#F9E000" d="M59.8,79.5c0.4-0.8,1-1.4,1.7-1.9s1.5-0.7,2.3-0.7c0.8,0.1,1.5,0.5,2.1,1.3s0.8,2,0.9,3.8 c0,1.3-0.1,2.6-0.1,4c-0.1,7.6-0.3,15.3-0.3,23.1c0,0.6-0.3,1.1-0.8,1.5s-1.1,0.5-1.8,0.6c-0.9,0.1-1.7-0.1-2.6-0.7 c-0.9-0.6-1.6-1.6-2.1-3c-0.1-0.4-0.2-0.8-0.3-1.2c-1.5,1.6-3,2.9-4.7,4c-1.7,1-3.3,1.5-4.9,1.6c-1.6,0.1-3-0.5-4.2-1.7 s-2.2-3.2-2.8-6c-0.4-2.1-0.6-4.4-0.4-6.8c0.2-2.4,0.6-4.8,1.3-7.1c0.7-2.3,1.6-4.3,2.7-6.1c1.1-1.8,2.3-3.1,3.7-3.9 c2-1.2,4.2-1.7,6.6-1.5C57.2,78.7,58.5,79,59.8,79.5z M49.1,99.8c0,2.3,0.2,3.7,0.6,4.2c0.4,0.6,0.9,0.5,1.6-0.2 c0.7-0.7,1.4-1.8,2.1-3.2s1.5-3.1,2.2-4.8c0.7-1.8,1.3-3.4,1.8-5s0.8-2.8,0.9-3.7c-0.7-1-1.3-1.6-2-1.9C55.5,85,54.8,85,54,85.4 c-1.2,0.7-2.2,1.9-2.9,3.5c-0.7,1.7-1.2,3.5-1.5,5.4C49.3,96.4,49.1,98.2,49.1,99.8z"></path> </g> <g> <path fill="#F9E000" d="M142.8,107.9c-0.5,0.4-1.4,0.6-2.5,0.6c-0.8,0-1.5-0.2-2.1-0.5s-0.9-1-1-2.1c0-1.3,0-2.8,0.1-4.6 c0.1-3,0.1-6.1,0-9.4c0-3.2-0.2-5.7-0.5-7.5c-0.4-1.8-0.8-2.6-1.4-2.5c-0.5,0.1-1.1,1-1.6,2.5c-0.6,1.5-1.1,3.3-1.7,5.6 c-0.6,2.2-1.1,4.5-1.5,6.8c-0.5,2.3-0.8,4.5-1.1,6.3c-0.3,1.9-0.4,3.2-0.4,4c0,0.7-0.3,1.3-0.9,1.7s-1.3,0.6-2.1,0.5 c-0.8,0-1.7-0.3-2.4-0.9c-0.8-0.5-1.4-1.4-1.8-2.6c-0.6-1.7-0.9-4.1-1-7.1s0-6.1,0.2-9.2c0.3-3.1,0.6-5.8,1.1-8 c0.4-1.6,0.9-2.9,1.6-3.7c0.7-0.8,1.4-1.3,2.2-1.5c0.8-0.1,1.5,0,2.2,0.4c0.6,0.4,1.1,1.1,1.3,2c2-1.7,4-2.7,6-3s3.8,0.1,5.4,1.1 c1.6,1,2.8,2.6,3.7,4.8c0.5,1.3,0.8,3.3,1,5.8s0.3,5.2,0.2,8.1c-0.1,2.8-0.4,5.4-0.9,7.7C144.4,105.6,143.7,107.1,142.8,107.9z"></path> </g> <g> <path fill="#F9E000" d="M80.2,77.3c1-0.3,1.9-0.3,2.6,0c0.8,0.3,1.3,0.9,1.7,1.6c0.4,0.7,0.5,1.5,0.3,2.3 c-0.1,0.8-0.6,1.5-1.4,2.1c-0.5,0.4-1,0.7-1.4,0.9c-0.6,0.3-1.1,0.7-1.6,1.1s-1,1.1-1.5,2c-0.8,1.4-1.3,3.1-1.7,4.9 c-0.3,1.8-0.5,3.7-0.6,5.6s-0.1,3.6-0.1,5.2c0,0.6-0.3,1.1-0.9,1.4c-0.5,0.3-1.2,0.5-2,0.5s-1.5-0.3-2.2-0.7 c-0.7-0.4-1.2-1.2-1.6-2.1c-0.3-0.9-0.5-2.4-0.6-4.6c-0.1-2.1-0.2-4.5-0.2-7s0.1-4.9,0.4-7c0.2-2.1,0.6-3.6,1-4.5 c0.6-1,1.4-1.6,2.2-1.7c0.9-0.2,1.6,0,2.3,0.7c0.7,0.6,1,1.6,1,3l0.1,1.6c0.6-1.6,1.3-2.8,2-3.6C78.7,78.1,79.4,77.6,80.2,77.3z"></path> </g> <g> <path fill="#F9E000" d="M163,81.9c0.2,1.1,0,2-0.5,2.7c-0.6,0.7-1.2,1.1-2.1,1.2c-0.8,0.1-1.6,0-2.2-0.5c-0.7-0.4-1-1.2-1-2.3 c0-0.3-0.1-0.5-0.2-0.7c-0.1-0.2-0.3-0.2-0.7-0.1c-0.9,0.3-1.7,1.1-2.4,2.4c-0.7,1.2-1.3,2.7-1.7,4.4c-0.4,1.7-0.7,3.3-0.7,4.9 c-0.1,1.8,0.2,3.1,0.6,3.8c0.5,0.7,1.1,0.9,1.9,0.6c0.8-0.4,1.6-1.3,2.6-2.7c0.4-0.6,0.9-1,1.5-1.1c0.6-0.2,1.2-0.1,1.8,0.1 s1.1,0.6,1.4,1.2c0.4,0.6,0.5,1.3,0.3,2.2c-0.2,1.3-0.8,2.5-1.6,3.5s-1.7,1.8-2.9,2.3c-1.1,0.6-2.3,0.9-3.6,0.9 c-2.1,0.1-3.8-0.4-5.1-1.4s-2.3-2.3-3-3.9c-0.7-1.9-1.1-4-1-6.3c0-2.3,0.4-4.6,1.2-6.8c0.8-2.2,1.9-4.2,3.3-5.8 c1.5-1.6,3.3-2.8,5.5-3.3c1.4-0.3,2.8-0.3,4.1,0c2.2,0.7,3.6,2.1,4.2,4.3C163,81.5,163,81.7,163,81.9z"></path> </g> <g> <path fill="#F9E000" d="M85.5,104.9c-0.6-1.8-1-4.2-1.2-7.2S84,91.4,84.1,88c0.1-3.5,0.3-6.8,0.7-9.9c0.4-3.1,0.9-5.7,1.6-7.7 c0.3-0.9,0.8-1.7,1.5-2.4c0.6-0.6,1.3-1.1,2-1.3c0.7-0.2,1.2-0.2,1.7,0.2c0.5,0.3,0.7,1,0.6,2.1c-0.1,3.1-0.2,5.4-0.2,7.1 c-0.1,1.7-0.1,3.5-0.1,5.7c0,1.1,0,2.5-0.1,4.1c1-1.2,2.1-2.1,3.1-2.8c1.5-1,3-1.5,4.5-1.7c1.8-0.2,3.4,0.3,4.7,1.4 c1,0.8,1.8,2.1,2.3,3.7s0.7,3.6,0.5,6.1c-0.2,1.8-0.6,3.7-1.3,5.5c-0.7,1.8-1.6,3.5-2.7,4.9l0,0c-1.1,1.4-2.4,2.6-3.8,3.4 c-1.6,0.9-3.4,1.3-5.2,1.2c-0.9-0.1-1.7-0.3-2.6-0.6c-0.4,0.6-1,0.9-1.8,0.9c-0.7,0.1-1.4-0.1-2.1-0.5 C86.5,106.8,85.9,106,85.5,104.9z M100,86.8c-0.6-0.4-1.2-0.3-1.9,0.3c-0.7,0.6-1.4,1.5-2.1,2.7s-1.3,2.5-1.9,3.9s-1.1,2.8-1.5,4 c-0.4,1.3-0.6,2.3-0.7,3c0.5,0.8,1.1,1.3,1.6,1.5s1.1,0.2,1.7-0.1c1.1-0.6,2.1-1.6,2.9-3s1.5-3,2-4.7s0.7-3.2,0.8-4.6 C100.9,88.3,100.6,87.3,100,86.8z"></path> </g> <g> <path fill="#F9E000" d="M180.7,70.7c0.6-1.3,1.3-2.1,2-2.6c0.7-0.4,1.4-0.5,1.9,0c0.5,0.4,0.8,1.4,0.7,2.9l-0.1,3 c0.6,0,1.2,0,1.7,0.1c1.1,0.1,1.9,0.3,2.5,0.7c0.6,0.4,0.9,0.9,1,1.4s-0.1,1-0.4,1.3c-0.4,0.4-1,0.6-1.7,0.7l-3.2,0.2 c-0.1,3.5-0.2,6.6-0.2,9.3c0,2.6-0.1,5.7-0.1,9.1c0,2.3,0,5.1-0.1,8.3c0,0.6-0.2,1-0.6,1.3c-0.4,0.3-0.9,0.5-1.5,0.5 c-0.7,0.1-1.4-0.1-2.1-0.6c-0.7-0.4-1.3-1.2-1.7-2.3c-0.6-1.8-1-4.4-1.1-7.6c-0.2-3.2-0.1-6.7,0.1-10.2c0.1-2,0.4-4.4,0.8-7.3 l-3.2,0.2c-0.3,0-0.5-0.1-0.7-0.3c-0.2-0.2-0.3-0.5-0.3-0.9c-0.1-0.4,0-0.9,0.2-1.4s0.7-0.9,1.3-1.2c0.8-0.4,2-0.7,3.6-0.9 C179.8,72.9,180.2,71.7,180.7,70.7z"></path> </g> <g> <path fill="#F9E000" d="M107.4,84.2c1-1.6,2.3-2.8,3.8-3.5s2.9-0.9,4.4-0.7c1.5,0.2,2.8,0.9,3.9,2.1s1.9,2.8,2.3,4.9 c0.3,1.8,0.4,3.7,0.2,5.6c-0.2,2-0.6,3.8-1.3,5.6c-0.7,1.8-1.6,3.2-2.8,4.4c-1.2,1.2-2.6,1.9-4.2,2.1c-1.2,0.1-2.4,0-3.5-0.4 s-2.1-1.2-3-2.2s-1.5-2.3-2-3.9c-0.5-2.1-0.6-4.5-0.3-7S106.2,86.3,107.4,84.2z M111.7,94.2c0,1.3,0.2,2.3,0.4,3.2 c0.3,0.9,0.6,1.3,1,1.4c0.6,0.1,1.2-0.3,1.8-1.3c0.6-1,1.1-2.3,1.4-4.1c0.4-2.6,0.5-4.5,0.3-5.8s-0.6-2-1.1-2.2s-1.1,0-1.7,0.7 s-1.1,1.7-1.5,3.1C111.9,90.6,111.7,92.3,111.7,94.2z"></path> </g> </g> <g> <g> <path fill="#F4E01C" d="M175.3,67.8c0,0-7.6,0.8-7.5,5.4c0.1,4.5,4.1,6.3,5.6,6.3c1.6,0,1.7,0.8,1.6,1.4s-2.7,1.2-6.1,0.7 s-6-1.6-7.2-6.7c-1.2-5.2,2-10.5,10.9-11.6c0,0,2.7,0.2,3.1,3C175.7,66.2,175.7,67.4,175.3,67.8z"></path> <path fill="#F4E01C" d="M175,84.2c0,0-7,0.9-7,4.8s3.6,5.3,5.1,5.3s1.5,0.6,1.5,1.2s-2.5,1.1-5.6,0.7c-3.1-0.3-5.5-1.2-6.5-5.7 c-1-4.4,2.1-9,10.2-10.1c0,0,2.5,0.1,2.8,2.5C175.4,82.8,175.4,83.9,175,84.2z"></path> <path fill="#F4E01C" d="M174.6,85.3c0,0-4.3,0.3-5.4,4c0,0,0.1,4.2,4.7,4.2c0,0,0.2-3.4,0.1-3.7c0-0.3,0.3-0.9,0.4-1.8 s0.2-1.3,0.2-1.7C174.5,85.9,174.6,85.3,174.6,85.3z"></path> <path fill="#F4E01C" d="M175,97.9c0,0-6.9,1-7.1,4.5c-0.2,3.5,3.4,4.6,4.8,4.5c1.4-0.1,1.5,0.5,1.4,1c0,0.5-2.5,1-5.6,0.8 s-5.4-0.9-6.2-4.8c-0.9-3.9,2.3-8.1,10.4-9.3c0,0,2.5,0,2.7,2.1C175.4,96.7,175.4,97.6,175,97.9z"></path> <path fill="#F4E01C" d="M174.5,99c0,0-4.3,0.5-5.6,3.5c0,0-0.2,3.4,4.4,3.2c0,0,0.3-2.7,0.3-3s0.3-0.8,0.5-1.5s0.3-1.1,0.3-1.4 C174.4,99.5,174.5,99,174.5,99z"></path> <path fill="#F4E01C" d="M169.3,62l-0.1,1.6l1.3-0.4l0.1-1.2c0,0,0.8,0,0.7-1c0,0-1.9,0.5-2.7,0C168.6,61,168.3,61.9,169.3,62z"></path> <path fill="#F4E01C" d="M168.4,109.4c-0.1,0.1-0.5,8.8-0.5,8.8l0.7,2.3l0.9-2.1l0.3-9C169.6,109.5,169.1,109,168.4,109.4z"></path> <path fill="#F4E01C" d="M168.2,60.5c0,0,1.3,1,3.5,0.1v-5.9c0,0,0.1-0.9,0.2-1.2c0-0.2-1.8-0.7-3.7-0.2c0,0,0.3,1.1,0.3,1.6 C168.5,55.3,168.2,60.5,168.2,60.5z"></path> <path fill="#F4E01C" d="M175.3,69.2c0,0-5.5,0.5-6.1,3.4s1.7,6,5.1,5.7c0,0,0.6-0.8,0.6-2.2c0-1.5-0.4-3.2,0-4.1 C175.2,71.1,175.9,70,175.3,69.2z"></path> </g> </g> </g> </svg>