<svg xmlns="http://www.w3.org/2000/svg" xmlns:xlink="http://www.w3.org/1999/xlink" id="Capa_1" x="0px" y="0px" viewBox="0 0 612 612" style="enable-background:new 0 0 612 612;" xml:space="preserve"> <style type="text/css"> .st0{fill:#FFFFFF;} </style> <path class="st0" d="M571,305.11c0.68,145.76-116.83,264.68-262.96,265.66C160.33,571.76,42.27,452.73,41.01,308.11 C39.73,161.79,158.45,41.29,305.86,41.23C453.32,41.17,571.1,161.04,571,305.11z M470.39,502.23c-0.14-0.23-0.28-0.46-0.42-0.69 c-0.71,0.32-1.43,0.61-2.11,0.97c-18.01,9.71-37.79,8.13-53.43-4.94c-6.88-5.75-13-12.41-19.34-18.79 c-1.47-1.48-2.36-1.55-3.89-0.17c-9.08,8.18-18.85,15.43-29.71,21.08c-11.1,5.78-22.79,9.35-35.52,9.02 c-28.74-0.74-51.07-21.6-51.93-49.56c-0.34-11.15,1.7-21.6,8.31-30.84c4.98-6.97,11.48-12.15,19.05-16.04 c10.39-5.34,21.37-7.29,32.85-5.02c11.16,2.2,20.16,8.35,27.59,16.73c11.35,12.81,22.48,25.81,33.67,38.75 c3.89,4.49,3.84,4.53,7.93,0.42c0.75-0.75,1.47-1.53,2.23-2.26c1.36-1.3,1.52-2.36-0.21-3.6c-1.64-1.17-3.16-2.56-4.53-4.04 c-5.77-6.26-7.71-13.76-6.65-22.05c0.53-4.14,4.32-6.75,8.05-5.67c-0.73,1.06-1.41,2.05-2.08,3.05c-5.22,7.71-2.85,16.48,5.6,19.83 c2.3,0.91,5.01,1.11,7.51,1.04c1.44-0.04,3.29-0.9,4.22-2.01c6.68-7.98,13.27-16.05,19.7-24.23c4.25-5.41,8.16-11.08,12.33-16.55 c0.51-0.66,1.69-0.81,2.57-1.2c0.22,0.74,0.8,1.59,0.62,2.21c-2.25,7.86,0.65,13.98,6.31,19.21c7.62,7.04,17.79,5.33,22.57-3.91 c5.5-10.66,3.82-27.93-14.32-32.93c-6.56-1.81-13.28-2.22-19.96-1.56c-24.49,2.44-48.94,5.2-73.43,7.63 c-7.71,0.76-15.48,1.01-23.24,1.13c-2.65,0.04-5.37-0.88-7.95-1.71c-0.75-0.24-1.73-1.81-1.56-2.53c1.45-6.18,3.1-12.31,4.82-18.42 c0.16-0.56,1.25-0.86,1.91-1.28c0.39,0.66,1.07,1.29,1.12,1.98c0.07,1.02-0.35,2.07-0.47,3.12c-0.43,3.82,0.94,6.06,4.63,7.24 c1.49,0.48,3.1,0.8,4.66,0.82c3.7,0.05,7.44,0.17,11.1-0.24c21.92-2.45,43.8-5.18,65.73-7.54c11.14-1.2,22.39-2.25,33.46,0.39 c9.1,2.17,16.94,6.61,20.66,15.74c3.12,7.65,2.73,15.64-0.22,23.29c-4.68,12.09-14.69,17.81-26.49,20.95 c-1.61,0.43-3.98-0.23-5.39-1.23c-2.48-1.76-4.64-4.05-6.65-6.37c-2.57-2.97-4.86-6.18-7.56-9.67 c-7.26,9.08-14.21,17.79-21.17,26.49c1.2,0.57,1.9,0.64,2.56,0.49c6.11-1.38,12.26-2.61,18.3-4.24c8.27-2.23,16.57-3.47,25.12-2.33 c10.65,1.42,20.04,9.75,22.34,20.23c2.03,9.25-0.46,17.64-5.62,25.36c-0.65,0.97-1.31,1.92-1.97,2.88 c53.78-47.36,104.52-147.87,67.76-263.51C516,120.75,411.5,42.52,288.44,50.66C170.93,58.44,72.22,147.47,53.27,264.58 c-19.52,120.6,47.22,239.03,165.91,282.18c55.45,20.16,111.71,20.32,167.81,2.11C417.83,538.87,445.58,523.09,470.39,502.23z M332.67,502.47c9.35,0.22,15.77-0.91,25.25-4.97c11.98-5.14,22.18-12.97,31.89-21.51c1.52-1.33,0.61-2.29-0.27-3.33 c-10.48-12.39-20.8-24.92-31.52-37.1c-6.7-7.61-13.84-14.95-23.2-19.41c-11.49-5.47-23.21-6.07-34.61,0.02 c-22.31,11.93-25.68,41.31-14.81,58.84C296.16,492.4,312.06,501.68,332.67,502.47z M451.55,503.13 c14.03-0.15,26.84-8.68,31.38-21.17c2.78-7.64,3.07-15.3-2.02-22.21c-4.26-5.79-10.48-8.25-17.4-7.74 c-7.18,0.53-14.3,1.92-21.41,3.18c-7.89,1.4-15.71,4.15-23.61,4.33c-6.54,0.15-10.71,2.64-14.51,7.13 c-0.06,0.07-0.12,0.13-0.19,0.19c-2.31,2.37-2.4,2.72-0.08,5.18c7.99,8.47,16.05,16.89,25.65,23.6 C436,500.27,443.28,503.24,451.55,503.13z"></path> <path class="st0" d="M320.46,344.9c6.94-4.43,11.78-10.24,16.16-16.46c5.87-8.34,10.79-17.18,13.3-27.17 c0.77-3.08,0.6-3.09-2.67-3.28c-6.41-0.38-12.9-0.47-19.2-1.57c-9.03-1.58-11.88-6.83-9.22-15.66c1.98-6.55,5.84-12.04,10.22-17.16 c9.67-11.32,22.09-18.2,36.36-21.89c5.37-1.39,10.83-2.48,16.25-3.68c0.82-0.18,1.67-0.2,2.97-0.34c-0.36,2.09-0.66,3.78-0.93,5.48 c-0.84,5.31-1.79,10.61-2.46,15.94c-0.43,3.38,1.13,4.58,4.42,3.68c1.53-0.41,2.96-1.18,4.5-1.54c0.74-0.17,1.62,0.24,2.43,0.39 c-0.39,0.74-0.59,1.89-1.2,2.17c-4.24,1.96-8.55,3.77-12.86,5.57c-3.23,1.35-6.48,2.63-10.44,4.22c0.23-2,0.39-3.41,0.55-4.81 c0.59-5.25,1.37-10.49,1.73-15.76c0.29-4.41-1.57-6.11-6.04-5.93c-8.48,0.33-15.54,4.29-22.22,9.03 c-6.07,4.31-11.24,9.41-13.44,16.85c-0.22,0.76-0.45,1.53-0.58,2.3c-1.27,7.32,1.03,10.46,8.45,11.13c4.3,0.39,8.64,0.38,12.95,0.61 c1.92,0.11,2.9-0.74,2.74-2.61c-0.32-3.85-0.74-7.7-1.16-11.54c-0.1-0.92-0.37-1.83-0.6-2.97c2.65-0.1,3.99,1.39,5.22,2.95 c2.54,3.21,3.23,7.04,3.16,10.98c-0.04,2.48,0.9,3.14,3.28,3.12c6.79-0.06,13.61-0.22,20.36,0.31c11.83,0.92,19.01,9.02,19.18,20.89 c0.15,10.36-2.81,19.91-7.9,28.75c-6.57,11.42-15.04,21.13-26.91,27.37c-11.19,5.89-23.07,7.73-35.41,4.83 c-7.46-1.75-13.41-6.2-17.96-12.35c-1.27-1.72-2.22-1.9-4.08-0.76c-18.06,11.03-37.65,15.36-58.59,12.19 c-16.19-2.45-30.23-9.41-41.04-22.07c-6.39-7.48-10.28-16.23-12.31-25.77c-2.68-12.56-3.18-25.23-0.2-37.81 c4.06-17.12,12.72-30.97,29.2-38.68c8.97-4.19,18.51-4.94,28.23-3.27c21.73,3.73,36.22,16.63,43.88,36.72 c5.39,14.14,9.1,28.91,13.62,43.38c2.26,7.23,4.64,14.43,7,21.63C319.49,343.11,319.95,343.85,320.46,344.9z M202.39,292.99 c1.11,27.01,11.46,48.85,35.98,62.22c23.87,13.01,47.41,9.77,70.41-2.72c0.63-0.34,1.09-1.93,0.87-2.72 c-0.59-2.11-1.81-4.03-2.42-6.14c-3.93-13.54-7.75-27.11-11.65-40.66c-3.81-13.25-8.32-26.23-15.87-37.91 c-9.06-14.04-21.56-21.7-38.69-20.76c-14.09,0.77-24.95,6.84-31.97,19.27C203.92,272.67,202.44,282.62,202.39,292.99z M365.04,297.2 c-0.04,0.2-0.07,0.41-0.11,0.61c-1.76,0-3.53,0.07-5.29-0.02c-1.81-0.09-2.64,0.7-3.17,2.43c-0.97,3.2-1.99,6.42-3.43,9.43 c-7.04,14.68-16.52,27.45-29.65,37.32c-0.64,0.48-1.24,1.98-0.96,2.58c2.59,5.58,5.82,10.74,11.47,13.75 c6.78,3.61,14,3.25,21.17,1.76c19.11-3.97,39.55-26.51,36.84-51.86c-0.68-6.34-3.4-11.37-9.79-13.06 C376.57,298.67,370.75,298.14,365.04,297.2z"></path> <path class="st0" d="M180.17,186.64c2.46,1.08,4.43,1.77,6.22,2.77c9.07,5.09,18.11,10.23,27.13,15.41 c3.52,2.02,6.89,4.29,10.43,6.26c0.65,0.36,2.24,0.2,2.64-0.31c8.65-10.91,11.89-25.71,5.56-38.99c-1.84-3.85-4.72-6.77-8.28-9.07 c-0.64-0.41-1.27-0.85-2.35-1.57c1.04-0.27,1.57-0.52,2.11-0.52c8.3-0.03,16.59-0.05,24.89-0.03c2.97,0.01,3.24,0.27,2.4,3.03 c-2.42,7.97,0,6.32-8.32,6.57c-2.52,0.08-5.04,0.01-8.25,0.01c0.75,1.3,1.04,1.99,1.49,2.55c8.82,10.83,7.41,23.24,1.5,33.63 c-1.39,2.45-3.06,4.74-4.68,7.05c-0.93,1.32-1.12,2.41,0.53,3.22c7.11,3.5,13.97,7.73,21.4,10.31c15.64,5.43,31.02-1.96,37.3-17.24 c1.49-3.62,2.32-7.51,3.55-11.58c2.01,1.27,2.62,3.27,2.84,5.45c0.46,4.58-1.9,8.15-4.34,11.63c-4.51,6.41-10.59,11.04-17.24,15.01 c-3.33,1.99-6.84,3.75-9.94,6.05c-4.53,3.38-9.28,3.31-14.01,1.21c-9.5-4.21-18.88-8.7-28.26-13.18c-1.39-0.66-2.42-1.06-3.86-0.12 c-9.92,6.45-20.96,10-32.44,12.39c-14.15,2.94-28.41,3.15-42.66,1.21c-12.31-1.67-23.85-5.57-33.73-13.52 c-12.23-9.83-16.89-22.76-16.04-38.11c0.8-14.52,7.23-26.51,17.12-36.59c18.8-19.17,41.37-31.45,68.28-34.58 c9.52-1.11,19.18-1.13,28.79-1.32c20.47-0.4,40.94-0.56,61.42-0.85c3.3-0.05,3.5,0.27,2.54,3.46c-1.69,5.57-3.25,11.18-4.88,16.76 c-0.2,0.67-0.31,1.48-0.75,1.93c-0.41,0.42-1.28,0.7-1.82,0.56c-0.35-0.09-0.73-1.09-0.66-1.62c0.26-1.92,0.85-3.79,1.06-5.72 c0.41-3.67-0.82-5.52-4.43-5.78c-5.62-0.42-11.27-0.41-16.92-0.53c-3.62-0.08-7.24,0.01-10.86-0.09c-2.17-0.06-3.26,0.67-3.87,2.95 c-2.08,7.84-4.31,15.65-6.74,23.39c-4.69,14.95-14.64,25.29-28.67,31.85C190.62,182.23,185.74,184.22,180.17,186.64z M137.19,191.36 c1.71-2.56,3.23-4.41,4.25-6.5c1.32-2.69,3.26-3.75,6.14-3.49c6.14,0.56,12.29,1.06,18.43,1.64c6.11,0.57,12.17,0.49,18.05-1.52 c12.54-4.27,20.91-13.07,26.58-24.7c4.74-9.71,7.97-19.96,10.55-30.44c1.07-4.36,1.17-4.44-3.36-4.39 c-12.35,0.15-24.7,0.27-37.05,0.56c-14.12,0.33-27.67,3.18-40.28,9.78c-19.99,10.46-32.44,26.29-34.56,49.22 c-2.31,24.99,12.17,42.94,31.69,49.76c17.68,6.18,35.74,5.72,53.73,1.13c8.44-2.15,16.31-5.68,23.56-10.55 c1.42-0.95,2.51-1.9,0.3-3.26c-12.52-7.72-24.36-16.62-38.31-21.85c-10.73-4.02-21.64-7.08-33.28-6.15 C141.74,190.76,139.84,191.05,137.19,191.36z"></path> </svg>