<svg xmlns="http://www.w3.org/2000/svg" xmlns:xlink="http://www.w3.org/1999/xlink" x="0px" y="0px" viewBox="0 0 863 235" style="enable-background:new 0 0 863 235;" xml:space="preserve"> <style type="text/css"> .st0{fill:#FF991F;} .st1{fill:#FFBA5B;} .st2{fill:#FEFEFE;} .st3{fill:#FED368;} </style> <g id="Capa_1"> <path d="M431.5,234.98c-143.45,0-286.9,0-430.35,0.02C0.21,235,0,234.79,0,233.85C0.03,156.28,0.03,78.72,0,1.15 C0,0.21,0.21,0,1.15,0c286.9,0.02,573.8,0.02,860.7,0c0.94,0,1.15,0.21,1.15,1.15c-0.03,77.57-0.03,155.14,0,232.7 c0,0.94-0.21,1.15-1.15,1.15C718.4,234.98,574.95,234.98,431.5,234.98z M144.24,180.98l0.02,0c0.36,0.05,0.43-0.22,0.53-0.46l0,0 c2-1.39,3.69-3.07,4.94-5.18c1.72-1.6,2.93-3.62,4.24-5.51c2.09-3.02,4.22-6.03,5.76-9.41c1.04-2.28,2.34-4.44,3.4-6.71 c2.09-4.47,4.17-8.96,5.74-13.63c0.9-2.68,1.83-5.36,2.7-8.06c0.98-3.03,1.85-6.09,2.72-9.15c0.46-1.64,0.83-3.31,1.23-4.96 c0.72-2.9,1.33-5.83,2.21-8.69c0.89-2.92,1.02-6.01,1.58-9c0.75-4.06,0.82-8.18,0.62-12.27c-0.07-1.49-0.03-3.02-0.42-4.51 c-0.33-1.28-1.04-2.39-1.86-3.29c-0.71-0.77-1.89-1.13-2.89-1.61c-4.21-2.02-8.65-3.42-13.14-4.63c-1.05-0.28-1.83-1.18-2.95-1.11 c-1.06,0.07-2.04-0.2-3.04-0.47c-1.79-0.48-2.26-1.31-1.73-3.1c0.36-1.2,0.53-2.43,0.23-3.64c-0.38-1.58-1.83-2.16-3.09-2.83 c-3.66-1.94-7.74-2.3-11.73-3c-1.69-0.3-3.41-0.13-5.11-0.21c-1.74-0.08-2.18-0.54-2.2-2.3c-0.01-1-0.08-2,0.01-2.99 c0.06-0.69-0.21-1.08-0.71-1.46c-1.3-0.99-2.81-1.03-4.34-1.01c-1.85,0.03-2.96,1.18-2.95,3.03c0.01,0.75-0.02,1.5-0.02,2.25 c0.01,1.99-0.37,2.39-2.4,2.46c-0.17,0.01-0.33-0.02-0.5-0.02c-1.61,0.04-3.22-0.03-4.8,0.37c-1.11,0.28-2.24,0.56-3.37,0.64 c-3.59,0.25-6.79,1.56-9.83,3.36c-1.32,0.78-2.3,2.43-1.66,4.36c0.21,0.63,0.42,1.31,0.55,1.99c0.21,1.07-0.38,2.2-1.42,2.23 c-1.85,0.05-3.48,0.9-5.24,1.16c-2.86,0.42-5.5,1.51-8.17,2.5c-2.28,0.84-4.43,1.99-6.77,2.72c-2.72,0.85-3.49,3.1-3.89,5.66 c-0.27,1.74,0.06,3.51-0.3,5.19c-0.47,2.22,0.13,4.35,0.18,6.51c0.05,2.06,0.5,4.12,0.9,6.16c0.36,1.84,0.27,3.81,0.85,5.56 c1.43,4.29,1.95,8.78,3.12,13.12c1.09,4.06,2.5,8.02,3.62,12.07c0.91,3.3,2.35,6.45,3.47,9.69c1.22,3.52,2.8,6.88,4.46,10.21 c3.09,6.21,6.36,12.32,10.25,18.06c3.19,4.7,7.11,8.75,11.46,12.4c1.66,1.39,3.3,2.87,5.24,3.81c1.64,0.79,2.42,1.66,2.32,3.57 c-0.1,1.98,0.45,2.39,2.46,2.65c0.16,0.02,0.32,0.14,0.47,0.13c1.34-0.1,2.54,0.82,3.88,0.59c1.04-0.18,2.08-0.39,3.14-0.5 c1.79-0.2,2.26-0.79,2.25-2.61c0-0.29,0.02-0.59-0.02-0.87c-0.18-1.44,0.55-2.27,1.82-2.75c0.75-0.28,1.44-0.68,2.03-1.21 c1.9-1.69,4.11-3.02,5.74-5.02C144.07,181.31,144.14,181.11,144.24,180.98z M276.61,17.62c-0.17,0.16-0.22,0.33-0.06,0.53 c-0.67,0.3-0.79,0.86-0.79,1.54c-0.01,1.4,0.18,2.79,0.22,4.19c0.1,3.03,0.07,6.07,0.01,9.1c-0.02,1.1-0.25,2.19-0.25,3.31 c0,1.07,0.85,1.73,1.48,1.63c0.94-0.14,1.88,0.01,2.8-0.17c0.86-0.17,1.37-0.82,1.17-1.57c-0.25-0.95-0.17-1.88-0.15-2.8 c0.11-4.76-0.47-9.55,0.42-14.29c0.13-0.7-0.27-1.09-0.9-1.28c-0.35-0.11-0.75,0.1-1.08-0.16c-0.05-0.19-0.09-0.37-0.14-0.56 c1.64-1.23,3.05-2.76,4.86-3.78c0.24-0.14,0.41-0.42,0.22-0.75c-0.18-0.3-0.4-0.52-0.78-0.51c-0.75,0.01-1.49-0.02-2.24,0 c-0.72,0.03-1.49-0.2-2.12,0.42c-0.76,0.76-1.56,1.48-2.32,2.24C276.09,15.57,276.09,16.57,276.61,17.62z M218.06,37.91l0.01,0.06 l0.04-0.04c0.25,0.02,0.5,0.06,0.74,0.06c3.62-0.03,7.24-0.11,10.86-0.07c2.93,0.03,3.07-0.08,3.06-3.01 c0-0.92-0.39-1.15-1.19-1.15c-2.65,0.02-5.3-0.33-7.96-0.18c-1.32,0.07-1.54-0.39-1.64-2.18c-0.07-1.18,0.32-1.63,1.5-1.6 c2.04,0.06,4.07,0.22,6.11,0.04c1.74-0.15,2.07-0.48,1.89-2.25c-0.03-0.32-0.24-0.63-0.22-0.94c0.06-1-0.47-1.16-1.32-1.14 c-1.91,0.05-3.83,0.03-5.74,0.03c-2,0-1.99-0.01-2-1.98c0-1.01,0.24-1.61,1.48-1.56c2.24,0.1,4.49,0.04,6.74,0.02 c0.73-0.01,1.67-0.01,1.91-0.75c0.33-1.01,0.23-2.13,0.07-3.21c-0.02-0.12-0.35-0.28-0.51-0.26c-0.52,0.06-0.96-0.28-1.45-0.26 c-4.11,0.18-8.23-0.11-12.34,0.17c-1.13,0.08-1.11,0.55-1.13,1.36c-0.08,5.72,0.26,11.46-0.26,17.17 C216.64,37.26,217.02,37.83,218.06,37.91z M745.22,204.1c0.07-0.61,0-1.2-0.59-1.53c-1.07-0.61-4.25,0.1-4.76,1.22 c-0.77,1.66-2.14,2.6-3.57,3.53c-1.65,1.06-3.05,0.49-3.51-1.41c-0.37-1.5-1.04-1.75-2.58-1.59c-2.37,0.25-3.78,1.78-5.27,3.34 c-0.38,0.4-0.66,1.34-1.14,1.11c-0.54-0.27-0.57-1.17-0.57-1.87c0-0.21-0.01-0.42-0.02-0.62c-0.07-1.39-0.21-1.48-1.57-1.15 c-0.99,0.24-1.94,0.55-2.8-0.5c-0.56-0.69-1.39-0.61-2.09,0.05c-0.58,0.55-1.1,1.13-1.42,1.87c-1.15,2.63-1.92,5.39-2.8,8.11 c-0.15,0.46-0.36,1.14,0.24,1.59c0.76,0.57,2.97,0.3,3.39-0.52c0.54-1.05,1.34-1.99,1.39-3.28c0.03-0.78,0.41-1.51,0.88-2.17 c0.17-0.24,0.37-0.64,0.62-0.53c1.49,0.67,3.34,0.74,4.51,1.67c0.95,0.75,1.7,1.04,2.79,1.08c1.72,0.07,3.46-0.33,5.16,0.42 c0.49,0.21,1.38,0.4,1.87-0.22c0.71-0.9,1.7-1.29,2.65-1.8c0.35-0.19,0.73-0.69,1.08-0.36c0.33,0.3,0.04,0.82-0.03,1.27 c-0.12,0.73-0.89,1.41-0.5,2.08c0.5,0.85,1.32,1.56,2.4,1.58c1.25,0.02,2.57,0.27,3.5-1.05c0.84-1.2,0.77-2.5,0.76-3.82 c-0.01-1.21,0.95-2.65,2.06-3.05c0.39-0.14,0.8-0.22,1.17,0.12c0.4,0.37,0.04,0.7-0.06,1.02c-0.14,0.43-0.38,0.83-0.53,1.25 c-0.73,2.03,0.5,3.92,2.62,4.07c1.11,0.08,2.09-0.09,2.91-0.98c0.53-0.58,1.5-1.14,2.07-0.75c0.68,0.45,0.15,1.44-0.06,2.18 c-0.05,0.19-0.23,0.34-0.31,0.52c-0.41,0.89,0.14,1.81,1.32,2.44c1.03,0.55,1.24-0.29,1.5-0.87c0.65-1.43,1.32-2.85,1.71-4.38 c0.65-2.6,2.08-4.88,2.96-7.38c1.73-4.95,4.44-9.34,7.52-13.54c0.29-0.4,0.69-0.76,0.61-1.32c-0.2-1.38-2.76-2.63-4.01-1.96 c-1.3,0.7-2.12,1.86-2.77,3.12c-1.97,3.84-3.48,7.87-5.02,11.89c-0.71,1.86-1.62,3.66-3.25,4.94c-0.45,0.36-0.91,0.81-1.52,0.78 c-0.54-0.02-1.27,0.36-1.61-0.28c-0.41-0.74,0.46-0.91,0.8-1.32c0.11-0.13,0.23-0.24,0.34-0.37c0.49-0.58,0.42-1.28,0.23-1.9 c-0.2-0.66-0.87-0.61-1.47-0.64c-1.87-0.09-3.65,0.24-5.37,0.98c-0.12-0.14-0.25-0.29-0.37-0.43c0.15-0.11,0.3-0.22,0.46-0.32 C745.29,204.35,745.35,204.25,745.22,204.1z M693.45,91.87l-0.06,0.02l0.05,0.02c-0.04,0.46-0.11,0.91-0.11,1.37 c0.01,7.95,0.04,15.9,0.06,23.85c0.02,11.2,0.04,22.4,0.03,33.59c0,0.98,0.2,1.33,1.28,1.31c3.91-0.08,7.82-0.08,11.74,0 c1.04,0.02,1.39-0.42,1.53-1.27c0.06-0.37,0.02-0.75,0.02-1.12c0-16.69-0.01-33.39,0.01-50.08c0-2.49-0.23-4.99,0.22-7.47 c0.13-0.7,0-1.08-0.93-1.11c-4.24-0.13-8.49,0.19-12.73-0.19C693.78,90.71,693.38,91.05,693.45,91.87z M225.08,104.64 c0,0,0,0.01,0,0.01c-0.01,15.04-0.03,30.07-0.01,45.11c0,2.57,0.03,2.46,2.41,2.36c3.54-0.14,7.08-0.09,10.62-0.13 c1.66-0.02,1.77-0.12,1.75-1.84c-0.04-3.87-0.13-7.74-0.13-11.61c0-11.2,0.03-22.41,0.05-33.61c0-1.65,0.29-1.93,1.97-1.93 c4.79-0.01,9.58,0.06,14.37-0.01c2.44-0.03,2.78-0.41,2.88-2.9c0.09-2.33,0.01-4.66,0.02-7c0.01-2.05,0-2.08-2.05-2.08 c-15.58,0-31.16-0.01-46.74-0.01c-1.08,0-2.22,0.21-3.23-0.06c-1.34-0.36-1.45,0.32-1.42,1.24c0.11,3,0.12,5.99-0.02,8.99 c-0.06,1.41,0.39,1.83,1.81,1.83c5.25-0.01,10.5,0,15.75-0.05C224.35,102.93,224.99,103.41,225.08,104.64z M737.66,117.61 c0.76-0.52,1.31-0.36,2.07,0.76c1.8,2.66,3.92,5.07,5.93,7.56c6.42,7.91,12.93,15.74,19.42,23.59c1.06,1.28,1.82,2.58,4.08,2.45 c2.73-0.16,5.52-0.06,8.29-0.06c1,0,2.09-0.35,1.81-1.92c-0.16-0.84-0.01-1.74,0-2.61c0.11-18.36-0.23-36.73,0.23-55.09 c0.02-0.98-0.3-1.33-1.28-1.32c-4,0.01-7.99-0.01-11.99-0.09c-1.18-0.02-1.54,0.3-1.52,1.54c0.11,9.99,0.14,19.99,0.2,29.98 c0.01,1.31-0.24,2.56-0.77,3.88c-3.31-4.76-7.12-9-10.75-13.38c-4.22-5.09-8.36-10.25-12.54-15.38c-1.57-1.93-3.19-3.84-4.66-5.85 c-0.38-0.52-0.67-0.68-1.26-0.7c-3.45-0.09-6.9-0.05-10.35-0.02c-1.25,0.01-1.62,0.53-1.58,1.6c0.06,1.66,0.21,3.31,0.21,4.97 c0.01,14.12,0,28.24,0,42.35c0,3.66,0.06,7.33,0,10.99c-0.02,1,0.37,1.13,1.22,1.12c3.87-0.04,7.75-0.02,11.62-0.02 c1.59,0,1.61-0.1,1.72-1.67c0.18-2.65-0.28-5.27-0.22-7.93c0.16-6.83,0.07-13.66,0.09-20.49c0.11-0.28,0.14-0.56-0.04-0.83 c0-0.47,0.01-0.94,0.01-1.41C737.62,118.98,737.64,118.3,737.66,117.61z M778.14,216.88L778.14,216.88 c-0.32-0.19-0.49,0.03-0.5,0.28c-0.03,0.54,0.24,0.98,0.71,1.23c0.67,0.35,1.4,0.51,2.17,0.51c3.16,0,6.33,0.04,9.49,0.04 c13.61-0.01,27.23-0.04,40.84-0.05c1.25,0,2.5,0.07,3.75,0.04c1.05-0.02,1.72-0.38,1.92-1.63c0.33-1.99,0.23-3.96,0.22-5.95 c-0.01-8.58,0.07-17.16,0.07-25.74c0.01-22.78,0.01-45.55,0-68.33c-0.01-27.15-0.03-54.31-0.04-81.46c0-3.58-0.06-7.16,0.02-10.74 c0.06-2.61-0.76-3.41-2.88-3.39c-5.16,0.04-10.33,0.09-15.49,0.09c-89.74,0-179.47,0-269.21,0c-68.95,0-137.9,0-206.85-0.01 c-4.54,0-9.08-0.04-13.62-0.06c-1.24-0.01-2.41,0.8-2.44,1.69c-0.03,1,1.01,1.86,2.36,1.89c1,0.02,2-0.05,3-0.05 c28.83-0.01,57.65-0.01,86.48-0.01c41.45,0,82.89-0.01,124.34-0.01c47.57,0,95.15,0.02,142.72,0.02c40.99,0,81.98-0.01,122.96-0.01 c7.99,0,15.98,0.03,23.97,0.04c1.01,0,1.24,0.65,1.06,1.41c-0.15,0.66-0.21,1.31-0.21,1.97c-0.01,11.5-0.02,22.99-0.02,34.49 c0,49.53,0,99.05-0.01,148.58c0,3.28-0.01,3.27-3.41,3.27c-16.46-0.01-32.91-0.01-49.37-0.01c-0.54,0-1.14-0.08-1.59,0.23 C778.02,215.6,777.23,216.04,778.14,216.88z M247.45,218.93c0-0.01,0-0.01,0-0.02c46.32,0,92.64-0.01,138.96,0 c25.28,0.01,50.56,0.05,75.85,0.06c1.78,0,3.58,0.07,5.33-0.47c0.51-0.16,0.75-0.34,0.79-0.91c0.13-1.85-0.29-2.44-2.13-2.63 c-2.54-0.26-5.08,0.06-7.63,0.05c-139.28-0.04-278.56-0.03-417.85-0.03c-3.42,0-6.83,0.01-10.25-0.04c-1.28-0.02-1.63-0.5-1.6-1.81 c0.06-2.75,0.14-5.49,0.15-8.24c0.01-49.36,0.01-98.72,0.01-148.08c0-9.66,0.01-19.33-0.03-28.99c-0.01-2.24,0.24-2.6,2.52-2.6 c3.37,0,6.75,0,10.12,0c10.46,0.01,20.91,0.01,31.37,0.01c1.31,0,2.15-0.71,2.11-1.76c-0.04-1.22-0.71-1.78-2.08-1.77 c-1.77,0.02-3.54,0.04-5.3,0.04c-9.75,0-19.5-0.01-29.25-0.01c-3.71,0-7.41-0.03-11.12,0.02c-1.53,0.02-2.07,0.58-2.29,2.08 c-0.06,0.41-0.05,0.83-0.05,1.25c0.01,6.37,0.03,12.74,0.04,19.12c0.01,49.6,0.02,99.19,0.02,148.79c0,7.45-0.09,14.91-0.01,22.36 c0.03,2.68,0.58,3.02,2.68,3.36c1.12,0.18,2.24,0.23,3.36,0.23c5.33-0.01,10.66-0.02,15.99-0.02 C113.93,218.93,180.69,218.93,247.45,218.93z M615.36,121.99c-0.33,3.15,0.3,6.79,1.53,10.21c1.77,4.94,4.6,9.28,8.63,12.77 c5.74,4.96,12.48,7.41,19.95,8c3.84,0.31,7.69-0.08,11.44-0.79c5.7-1.09,10.75-3.7,15.11-7.55c1.87-1.65,3.34-3.69,4.86-5.66 c1.52-1.96,2.38-4.31,3.2-6.57c0.89-2.43,1.59-5,1.79-7.64c0.24-3.2,0-6.38-0.45-9.54c-0.24-1.71-0.49-3.5-1.19-5.05 c-1.99-4.44-4.43-8.59-8.21-11.85c-6.07-5.24-13-8.19-21.06-8.36c-3.27-0.07-6.51,0.13-9.77,0.46c-2.84,0.29-5.26,1.58-7.82,2.56 c-4.76,1.81-8.57,4.98-11.66,8.9C617.25,107.58,615.09,114.14,615.36,121.99z M501.5,121.36c0.02,0,0.04,0,0.07,0 c0,9.04,0,18.08,0,27.11c0,0.83-0.03,1.67,0,2.5c0.03,0.64,0.25,1.05,1.06,1.04c4.04-0.04,8.08-0.02,12.12-0.02 c0.89,0,1.29-0.29,1.28-1.3c-0.05-4.58-0.02-9.16,0-13.74c0.01-1.69,0.28-1.94,2.05-1.95c3.07-0.03,6.13,0.42,9.21,0.24 c0.81-0.05,1.33,0.27,1.77,0.9c1.11,1.61,2.27,3.19,3.37,4.8c2.23,3.25,4.31,6.6,6.67,9.76c0.56,0.75,1.25,1.27,2.17,1.28 c4.16,0.04,8.33-0.03,12.49,0.18c0.5,0.02,1.21,0.11,1.44-0.46c0.24-0.62,0.12-1.32-0.38-1.86c-1.21-1.32-2.09-2.9-3.21-4.27 c-2.27-2.78-4.01-5.91-6.18-8.75c-0.87-1.14-1.67-2.36-2.34-3.67c-0.46-0.89-0.13-1.16,0.53-1.49c2.16-1.06,3.96-2.6,5.67-4.24 c1.23-1.18,2.44-2.48,3.11-4.04c1.55-3.59,2.22-7.38,2.07-11.32c-0.18-4.59-1.29-8.84-4.28-12.43c-4.85-5.81-11.39-8.26-18.68-8.56 c-9.32-0.38-18.66,0.17-27.98-0.26c-1.87-0.09-2.01,0.12-2.01,1.94C501.5,102.28,501.5,111.82,501.5,121.36z M316.94,151.99 c0,0.04,0,0.08,0,0.11c2,0,4,0.04,5.99-0.01c1.77-0.04,2.05-0.44,1.38-2.13c-0.49-1.23-1.16-2.38-1.7-3.59 c-4.8-10.7-9.44-21.49-14.32-32.15c-3.14-6.86-5.9-13.9-9.37-20.61c-0.15-0.29-0.28-0.61-0.36-0.93c-0.31-1.26-1.31-2.01-2.57-1.95 c-2.07,0.09-4.13,0.19-6.2,0.24c-1.75,0.04-3.5,0.06-5.25,0c-0.84-0.03-1.35,0.29-1.65,1.01c-0.33,0.79-0.52,1.65-0.92,2.4 c-1.29,2.41-2.36,4.93-3.48,7.42c-1.47,3.25-2.89,6.51-4.14,9.87c-0.59,1.59-1.54,3.13-2.26,4.71c-3.13,6.86-6.07,13.8-9.19,20.67 c-2.02,4.45-3.68,9.07-6.28,13.24c-0.47,0.76,0.17,1.67,1.18,1.68c4.08,0.04,8.16,0.06,12.24-0.01c0.91-0.02,1.98-0.31,2.23-1.44 c0.24-1.13,0.7-2.16,1.17-3.2c0.89-2,1.96-3.91,2.38-6.11c0.3-1.54,1.13-2.09,2.79-2.19c0.91-0.06,1.83-0.02,2.75-0.02 c6.91,0,13.83-0.01,20.74,0c2.2,0,2.25,0.09,3.03,2.11c1.18,3.1,2.39,6.18,3.61,9.26c0.43,1.1,1.16,1.71,2.47,1.64 C313.11,151.92,315.03,151.99,316.94,151.99z M376.46,89.89c-1.99,0.04-3.97,0.2-5.96,0.3c-3.16,0.17-6.04,1.11-8.9,2.33 c-7.12,3.03-11.98,9.46-11.15,18.25c0.14,1.44,0.24,2.89,0.71,4.22c1.22,3.51,3.95,5.74,6.95,7.72c3.77,2.48,8.14,3.35,12.37,4.48 c4.13,1.09,8.36,1.78,12.26,3.65c2.54,1.22,3.51,4.79,1.78,7.01c-1.75,2.24-4.36,2.89-6.9,3.07c-5.04,0.37-10.04-0.06-14.87-1.88 c-2.74-1.03-5.27-2.41-7.85-3.73c-0.41-0.21-0.85-0.65-1.18,0.17c-1.22,3.04-2.93,5.86-4.18,8.9c-0.47,1.14-0.24,1.87,0.8,2.42 c3.15,1.69,6.2,3.55,9.76,4.42c4.06,0.99,8.12,1.8,12.31,1.76c1.24-0.01,2.47-0.15,3.7-0.21c3.73-0.18,7.41-0.28,10.97-1.74 c4.43-1.82,8.35-4.06,10.72-8.48c1.42-2.65,2.21-5.41,2.15-8.37c-0.03-1.76-0.22-3.53-0.57-5.26c-0.36-1.79-1.09-3.52-2.38-4.84 c-3.2-3.27-7-5.55-11.51-6.59c-0.79-0.18-1.53-0.55-2.32-0.73c-3.37-0.79-6.79-1.41-10.12-2.34c-2.2-0.61-4.46-1.21-6.31-2.73 c-1.73-1.43-2.18-4.63-0.75-6.37c1.1-1.34,2.53-2.33,4.17-2.82c3.89-1.16,7.83-0.79,11.74-0.11c2.95,0.51,5.66,1.74,8.33,3.06 c2.27,1.12,3.41,0.67,4.12-1.71c0.66-2.21,1.74-4.24,2.6-6.37c0.58-1.44,0.48-2.36-0.89-3.01c-2.13-1.01-4.29-2.04-6.54-2.74 C385.31,90.31,380.92,89.82,376.46,89.89z M409.62,119.3c0,9.04,0,18.08,0,27.11c0,1.37-0.03,2.75,0.01,4.12 c0.03,1.01,0.41,1.52,1.61,1.49c3.16-0.09,6.33,0.01,9.5-0.02c3.57-0.04,2.88-0.45,2.9-2.96c0.05-6.91,0.05-13.83,0.06-20.74 c0-2.69,0.77-5.15,1.98-7.53c0.87-1.71,2.33-2.51,3.95-3.22c2.3-1,4.72-1.06,7.09-0.59c2.51,0.5,4.63,1.61,5.63,4.34 c0.75,2.06,1.1,4.16,1.14,6.27c0.12,7.37,0.07,14.74,0.1,22.11c0,0.62,0.1,1.24,0.15,1.86c0.05,0.6,0.44,0.78,0.96,0.68 c2.43-0.43,4.88-0.22,7.32-0.21c1.44,0.01,2.87,0.3,4.32,0.22c0.84-0.05,1.31-0.32,1.46-1.27c0.15-0.95,0.23-1.88,0.2-2.83 c-0.21-7.35,0.13-14.71-0.2-22.06c-0.11-2.39-0.27-4.74-0.79-7.09c-0.48-2.22-0.99-4.38-2.18-6.37c-3.47-5.79-8.86-8.02-15.28-8.35 c-1.9-0.1-3.82-0.13-5.7,0.26c-2.89,0.6-5.79,1.22-8.18,3.14c-0.46,0.37-0.94,0.8-1.56,0.54c-0.65-0.27-0.57-0.94-0.57-1.53 c-0.01-6.03-0.04-12.07,0-18.1c0.01-1.03-0.44-1.32-1.3-1.34c-0.96-0.01-1.94,0.14-2.87-0.02c-2.77-0.47-5.55-0.13-8.32-0.19 c-0.88-0.02-1.56,0.43-1.52,1.53C409.81,98.81,409.6,109.06,409.62,119.3z M580.99,115.14c0-7.66,0-15.32-0.01-22.99 c0-0.52,0.25-1.17-0.76-1.16c-4.2,0.04-8.41,0.03-12.61-0.02c-0.99-0.01-1.31,0.46-1.37,1.3c-0.03,0.41-0.05,0.83-0.05,1.25 c-0.01,6.66-0.03,13.32-0.03,19.98c0.01,12.24,0.04,24.48,0.09,36.72c0.01,2.16,0.24,2.28,2.43,1.81c0.2-0.04,0.41-0.03,0.62-0.03 c12.04,0,24.07,0,36.11-0.01c1.62,0,3.25,0,4.87-0.01c0.81,0,1.25-0.25,1.24-1.22c-0.05-2.95-0.09-5.91,0.03-8.87 c0.08-1.96-0.83-2.08-2.36-2.15c-0.37-0.02-0.75,0.05-1.12,0.07c-8.32,0.37-16.64-0.06-24.95,0.1c-1.85,0.03-2.12-0.12-2.12-2.18 C581,130.21,580.99,122.67,580.99,115.14z M471.66,122c0.01,0,0.02,0,0.03,0c0,9.32,0,18.65,0,27.97c0,1.93,0.1,2.02,2.04,2.02 c3.54,0,7.08,0,10.61,0c1.56,0,1.96-0.39,1.96-1.97c0-6.74-0.06-13.49,0-20.23c0.11-12.27-0.13-24.55,0.11-36.82 c0.04-2.05-0.18-2.23-2.29-2.22c-3.83,0.01-7.66,0.09-11.48,0.12c-0.81,0.01-1.26,0.24-1.13,1.17c0.11,0.74,0.15,1.49,0.15,2.24 C471.66,103.52,471.66,112.76,471.66,122z M579.19,214.05c-0.06-0.1-0.11-0.21-0.17-0.31c0.59-0.43,1.43-0.73,1.73-1.32 c0.8-1.57,2.24-1.71,3.65-1.93c0.64-0.1,1.06-0.17,1.12-0.99c0.06-0.83-0.24-1.29-1-1.45c-0.76-0.15-1.54-0.33-2.31-0.3 c-3.66,0.17-6.49,1.91-8.62,4.81c-0.58,0.78-0.99,1.7-1.1,2.7c-0.33,3.12,1.98,4.43,4.67,3.88c1.27-0.26,2.42-1.14,3.87-0.24 c2.08,1.29,4.25,1.11,6.39-0.1c1.63-0.92,3.03-2.2,4.73-3.01c0.5-0.24,1.06-0.57,1.47-0.2c0.42,0.38-0.03,0.95-0.21,1.37 c-0.63,1.4-1.32,2.76-1.16,4.37c0.09,0.87,0.37,1.66,1.31,1.88c2.29,0.53,4.46-1.33,5-2.96c0.68-2.02,0.98-4.13,1.82-6.12 c0.75-1.78,2.67-2.36,3.88-0.79c0.78,1.01,1.59,1.29,2.72,1.14c0.25-0.03,0.5-0.01,0.75-0.01c0.52,0,0.66,0.22,0.62,0.75 c-0.09,1.15-0.25,2.34-0.06,3.46c0.18,1.04-0.01,2.44,1.42,2.89c2.01,0.63,3.83,0.66,5.64-0.86c3.6-3.01,6.02-6.82,8.06-10.93 c0.48-0.96,0.9-1.98,0.82-3.1c-0.03-0.42,0.24-1.06-0.38-1.16c-0.57-0.1-1.26-0.29-1.77,0.24c-0.31,0.33-0.58,0.7-0.84,1.08 c-1.08,1.58-2.16,3.16-3.21,4.76c-0.69,1.05-1.7,1.79-2.37,2.87c-0.18-1.6-0.35-3.12,0.34-4.53c0.67-1.38,0.55-2.84,0.46-4.26 c-0.04-0.63,0.14-1.58-0.72-1.93c-3.36-1.36-6.18-0.2-6.27,4.06c-0.03,1.55-0.05,3.16-0.53,4.81c-0.35-0.43-0.54-0.74-0.71-1.13 c-0.61-1.36-0.45-2.76-0.51-4.16c-0.05-1.26-0.77-1.69-1.94-1.24c-0.27,0.1-0.55,0.22-0.77,0.39c-1.32,1.04-2.43,0.87-3.75-0.21 c-1.73-1.41-4.19-0.39-4.79,1.78c-0.22,0.8-0.4,1.67-1.25,2.07c-2.26,1.08-4.55,2.11-6.82,3.16c-0.25,0.11-0.43,0.3-0.67-0.14 c-1.28-2.32-1.68-2.35-4.03-1.07C582.25,212.85,580.69,213.4,579.19,214.05z M330.42,116.56c1.08,0,2.16-0.01,3.24,0 c1.03,0.01,1.71-0.36,1.91-1.48c0.12-0.68,0.49-1.31,0.72-1.98c1.71-4.97,4.39-9.59,5.34-14.85c0.38-2.12,0.49-4.24-0.03-6.33 c-0.3-1.21-0.85-2.43-1.79-3.21c-2.77-2.29-6.15-2.55-9.37-1.69c-3.99,1.07-6.32,5.05-5.63,9.1c0.3,1.78,0.39,3.77,2.16,5.06 c1.52,1.1,1.99,3.26,1.44,5.06c-0.91,2.99-1.75,5.99-2.62,8.99c-0.21,0.73,0.01,1.14,0.81,1.35 C327.89,116.91,329.16,116.56,330.42,116.56z M561.25,225.43c2.23,0.22,4.29-0.01,5.93-1.33c1.31-1.05,2.35-2.45,3.46-3.74 c0.53-0.61,1.02-1.46,0.37-2.13c-0.56-0.58-1.4-0.33-2.12,0.11c-1.94,1.17-4.08,1.63-6.31,1.36c-1.5-0.18-2.94-0.8-3.72-2.18 c-0.62-1.1-0.84-2.4-0.85-3.67c-0.02-2.82,1.24-5.19,2.82-7.41c3.45-4.86,7.03-9.59,12.33-12.66c2.46-1.43,4.98-2.64,7.92-2.19 c1.13,0.17,2.19,0.15,3.29-0.08c0.65-0.14,0.73-0.41,0.41-0.95c-0.53-0.89-1.03-1.8-1.55-2.7c-0.13-0.23-0.34-0.33-0.6-0.38 c-2.01-0.44-4.04-0.49-5.96,0.23c-5.5,2.04-10.95,4.18-15.21,8.49c-3.16,3.19-6.54,6.17-8.12,10.59 c-1.53,4.27-2.79,8.53-1.57,13.11c0.18,0.67,0.27,1.41,0.86,1.87C555.22,223.75,557.69,226.09,561.25,225.43z M714.54,196.66 c0-2.03-1.07-3.57-2.61-3.68c-1.83-0.14-3.65,0.05-5.28,0.85c-0.8,0.39-1.07,0.15-1.51-0.33c-0.51-0.56-0.85-1.29-1.84-1.29 c-2.27,0-2.63,0.14-3.32,2.32c-1.41,4.47-3.43,8.71-4.99,13.13c-1.24,3.52-3.01,6.85-4.07,10.46c-0.32,1.09,0.23,2.59,1.26,3.15 c0.86,0.47,1.75,0.16,2.49-0.99c0.35-0.54,0.73-0.77,1.38-0.84c1.78-0.19,3.64-0.23,5.29-0.82c4.2-1.5,8.15-3.5,10.69-7.45 c0.62-0.96,0.77-3.8,0.16-4.77c-0.34-0.54-0.92-0.69-1.46-0.89c-0.37-0.14-0.78-0.21-1.17-0.27c-0.24-0.04-0.53,0.05-0.62-0.27 c-0.11-0.36,0.18-0.55,0.42-0.67c1.02-0.54,1.82-1.35,2.55-2.18C713.29,200.56,714.54,198.9,714.54,196.66z M172.57,27.96 c-0.02-4.43-1.78-8.3-6.35-9.7c-0.54-0.17-1.09-0.34-1.63-0.49c-5.86-1.61-12.75,0.95-14.02,8.27c-0.79,4.57,1.27,8.93,5.53,10.95 c2.14,1.02,4.44,1.64,6.17,3.46c2.67,2.8,6.91,1.98,9.62,0.88c1.01-0.41,1.47-1.96,1.04-2.9c-0.4-0.88-1.69-1.16-2.83-0.62 c-0.48,0.23-0.95,0.5-1.42,0.74c-1.23,0.64-1.09-0.59-1.5-1.01c-0.57-0.6,0.13-0.76,0.46-0.96 C170.88,34.61,172.61,31.79,172.57,27.96z M638.68,201.7c-1.57,0.27-2.88-0.34-4.26-0.92c-1.97-0.83-3.07-0.19-4,1.51 c-0.49,0.9-0.12,1.44,0.89,1.44c0.33,0,0.64-0.08,0.97-0.15c1.03-0.23,2.06-0.25,2.87,0.65c0.14,0.15,0.34,0.26,0.3,0.5 c-0.05,0.29-0.3,0.21-0.49,0.23c-0.77,0.09-1.59,0.05-2.31,0.29c-2.19,0.73-4.52,1.16-6.23,2.99c-1.27,1.37-2.22,2.82-2.42,4.71 c-0.09,0.82,0.66,3.2,1.21,3.21c1.64,0.02,3.36,0.45,4.9-0.25c1.38-0.63,2.49-0.57,3.66,0.35c0.48,0.38,1,0.83,1.68,0.68 c1.58-0.35,3.1-0.83,4.45-1.77c2.28-1.59,2.75-2.35,3.59,1.54c0.15,0.71,0.4,1.3,1.12,1.5c2.5,0.71,4.97,1,7.38-0.39 c2.02-1.16,2.49-3.15,3.08-5.17c1.01-3.49-0.6-6.97-3.96-8.3c-0.72-0.29-1.16-0.14-1.51,0.55c-0.32,0.63-0.67,1.26-1.36,1.57 c-2.7,1.25-5.41,2.49-8.11,3.76c-0.78,0.37-1.17,0.13-1.4-0.67c-0.21-0.75-0.65-1.21-1.54-1.12c-0.61,0.06-1.09,0.36-1.61,0.62 c-1.07,0.54-2.11,1.19-3.44,1.21c0.93-1.69,1.68-2.31,3.34-2.75c1.29-0.35,1.81-1.24,1.19-2.42c-0.23-0.43-0.25-0.48,0.13-0.62 C637.99,204.03,638.48,203.04,638.68,201.7z M245.56,27.7c-0.01,0-0.02,0-0.03,0c0,2.58,0.04,5.16-0.01,7.74 c-0.04,2.03-0.11,2.25,1.79,2.45c2.68,0.29,3.68,0.7,3.7-2.85c0-0.37-0.02-0.75-0.01-1.12c0.02-0.94,0.4-1.39,1.44-1.43 c1.6-0.07,2.53,0.71,3.27,2.01c1.98,3.47,3.05,3.99,6.29,3.29c0.93-0.2,1.14-0.61,0.8-1.49c-0.51-1.33-1.5-2.3-2.45-3.27 c-0.92-0.95-0.64-1.66,0.15-2.41c0.57-0.54,1.33-0.99,1.67-1.65c1.48-2.83,0.93-6.41-0.8-8.79c-1.24-1.71-3.14-2.28-5.1-2.39 c-3.11-0.18-6.24-0.13-9.36-0.22c-1.04-0.03-1.39,0.41-1.37,1.41C245.58,21.87,245.56,24.79,245.56,27.7z M303.3,17.62 c0,0.01,0,0.03,0,0.04c-0.37,0.02-0.76,0.09-1.12,0.05c-1.04-0.13-1.5,0.34-1.79,1.32c-0.33,1.13-0.81,2.23-1.36,3.27 c-2.43,4.6-4.16,9.53-6.51,14.17c-0.38,0.75-0.02,0.97,0.48,1.17c1.39,0.58,2.75,0.4,4.15-0.08c0.71-0.24,1.04-0.44,1.15-1.28 c0.25-1.86,0.65-2.26,2.35-2.41c2.23-0.19,4.46-0.07,6.65,0.39c0.67,0.14,1.04,0.57,1.24,1.33c0.46,1.79,0.83,2.67,3.08,2.41 c0.6-0.07,1.2-0.17,1.8-0.26c1.31-0.21,1.51-0.62,1-1.83c-1.65-3.89-3.75-7.57-5.26-11.53c-0.74-1.94-1.76-3.78-2.6-5.69 c-0.31-0.71-0.79-1.03-1.51-1.06C304.46,17.61,303.88,17.62,303.3,17.62z M137.54,38.03c0.87-0.11,1.62-0.12,2.31-0.34 c0.42-0.13,1.16-0.18,0.72-1.14c-1.38-3.01-2.66-6.07-3.93-9.13c-1.25-3.01-3.15-5.72-3.98-8.92c-0.14-0.56-0.6-0.76-1.15-0.77 c-1.29-0.02-2.58-0.03-3.87-0.06c-0.61-0.02-0.87,0.32-1.07,0.83c-2.38,6.01-5.27,11.8-7.85,17.73c-0.4,0.92-0.16,1.43,0.84,1.52 c0.7,0.06,1.41,0.03,2.12,0.02c2.28-0.01,2.47-0.12,3.09-2.33c0.27-0.97,0.75-1.44,1.83-1.46c1.62-0.03,3.25-0.02,4.86-0.09 c1.64-0.07,2.56,0.54,3.04,2.05C134.98,37.5,136.3,37.82,137.54,38.03z M185.01,24.71c0,0,0.01,0,0.01,0 c0,1.79,0.03,3.58-0.01,5.37c-0.03,1.71,0.55,3.21,1.49,4.59c2.25,3.31,5.59,3.77,9.18,3.44c4.46-0.42,7.42-3.26,7.65-7.74 c0.2-3.9-0.03-7.82-0.07-11.74c0-0.38-0.05-0.73-0.53-0.87c-1.25-0.36-2.53-0.32-3.8-0.21c-0.68,0.06-0.97,0.47-0.96,1.25 c0.05,3.5,0.02,7,0.02,10.49c0,2.45-1.12,4.5-4.25,4.23c-2.05-0.17-3.46-1.45-3.5-3.54c-0.08-3.73,0.15-7.47-0.23-11.2 c-0.07-0.65-0.07-0.96-0.9-1.1c-0.99-0.16-1.97-0.12-2.95-0.17c-0.85-0.05-1.19,0.33-1.17,1.18 C185.03,20.71,185.01,22.71,185.01,24.71z M663.01,214.79c-0.32,0.99,0.32,1.46,1.18,1.88c0.89,0.43,1.75,0.37,2.67,0.19 c0.97-0.19,2.05-0.47,2.89,0.17c1.11,0.86,2.13,0.75,3.21,0.09c0.91-0.56,1.76-0.51,2.68,0.03c0.66,0.39,1.38,0.75,2.17,0.81 c3.27,0.24,6.49-3.58,5.61-6.76c-0.35-1.27-1.15-2.32-2.44-2.83c-0.87-0.35-1.67-0.24-2.37,0.49c-1.12,1.16-2.28,2.28-3.97,2.56 c-0.25,0.04-0.48,0.06-0.7-0.1c-0.34-0.26,0.04-0.41,0.08-0.61c0.26-1.13,1.21-1.87,1.64-2.91c1.23-2.99,2.44-5.99,3.65-8.99 c0.29-0.72,0.44-1.52-0.25-2.07c-0.68-0.53-1.5-0.37-2.25-0.02c-0.46,0.21-0.81,0.58-1.07,1.02c-1.54,2.52-2.07,5.45-3.17,8.15 c-0.44,1.08-0.77,1.68-1.9,1.82c-2.98,0.38-5.14,2.1-6.87,4.43C663.28,212.89,662.91,213.73,663.01,214.79z M489.58,212.65 c-0.21,1.92,0.03,4.17-0.03,6.41c-0.03,1.09,0.48,1.58,1.44,1.58c3.15,0,6.32,0.32,9.45-0.32c3.2-0.65,4.33-2.33,3.8-5.55 c-0.11-0.64-0.31-1.24-0.85-1.61c-0.93-0.64-0.93-1.42-0.39-2.26c0.76-1.16,0.77-2.25,0.33-3.61c-0.53-1.63-1.46-2.35-3.04-2.66 c-2.64-0.51-5.3-0.11-7.94-0.33c-0.45-0.04-0.92-0.05-1.37,0c-0.9,0.1-1.49,0.4-1.44,1.55C489.65,208,489.58,210.17,489.58,212.65z M101.48,17.66c0,0.02,0,0.05,0,0.07c-2.41,0-4.83-0.01-7.24,0.01c-0.8,0.01-1.81-0.17-1.95,1c-0.16,1.43,0.23,2.72,1.42,3.06 c1.25,0.36,2.48,0.17,3.71,0.19c0.9,0.01,1.32,0.32,1.37,1.19c0.03,0.46,0.07,0.91,0.09,1.37c0.12,3.79,0.1,7.57-0.01,11.36 c-0.02,0.71-0.07,1.53,0.83,1.73c1.14,0.24,2.3,0.27,3.45-0.02c0.83-0.21,0.88-0.83,0.88-1.55c-0.02-4.04-0.02-8.07-0.01-12.11 c0-1.56,0.35-1.91,1.87-1.92c0.7,0,1.38,0.08,2.08,0.2c1.8,0.31,2.57-0.37,2.31-1.89c-0.06-0.36-0.06-0.76,0-1.12 c0.2-1.26-0.41-1.59-1.56-1.56C106.3,17.7,103.89,17.66,101.48,17.66z M516.8,204.31c-0.01,0-0.27-0.02-0.51,0 c-1.31,0.14-1.65,0.68-0.86,1.76c0.7,0.96,1.17,2.07,1.88,2.96c0.86,1.07,1.72,2.1,2.29,3.36c0.85,1.86,1.72,3.7,1.13,5.84 c-0.23,0.83-0.18,1.61,0.59,2.11c0.78,0.5,1.61,0.37,2.36-0.09c0.73-0.46,1.09-1.16,0.88-2.03c-0.15-0.58-0.18-1.11,0-1.7 c0.49-1.61,0.79-3.15,2.02-4.59c1.38-1.63,2.2-3.79,3.43-5.63c0.28-0.42,0.88-1.2,0.01-1.77c-0.95-0.63-3.05-0.4-3.56,0.58 c-0.75,1.47-1.75,2.77-2.55,4.2c-0.27,0.48-0.36,1.04-1.02,1.1c-0.71,0.07-1.04-0.45-1.32-0.96c-0.62-1.11-1.17-2.26-1.83-3.35 C519.14,205.1,518.46,204.12,516.8,204.31z M750.82,203.24c0.91,0.02,2.39-1.32,2.4-2.19c0.01-0.86-0.92-1.55-2.14-1.58 c-1.45-0.04-3.02,0.88-3.09,1.8C747.93,202.05,749.6,203.21,750.82,203.24z"></path> </g> <g id="Capa_2"> <path class="st0" d="M778.14,216.88c-0.9-0.84-0.11-1.28,0.45-1.66c0.45-0.3,1.04-0.23,1.59-0.23c16.46,0.01,32.91,0.01,49.37,0.01 c3.4,0,3.41,0.01,3.41-3.27c0-49.53,0-99.05,0.01-148.58c0-11.5,0.02-22.99,0.02-34.49c0-0.66,0.06-1.31,0.21-1.97 c0.17-0.75-0.06-1.41-1.06-1.41c-7.99-0.01-15.98-0.04-23.97-0.04c-40.99,0-81.98,0.01-122.96,0.01 c-47.57,0-95.15-0.01-142.72-0.02c-41.45,0-82.89,0-124.34,0.01c-28.83,0-57.65,0.01-86.48,0.01c-1,0-2,0.07-3,0.05 c-1.35-0.03-2.39-0.9-2.36-1.89c0.03-0.89,1.2-1.69,2.44-1.69c4.54,0.02,9.08,0.06,13.62,0.06c68.95,0.01,137.9,0.01,206.85,0.01 c89.74,0,179.47,0,269.21,0c5.16,0,10.33-0.05,15.49-0.09c2.12-0.02,2.94,0.78,2.88,3.39c-0.08,3.58-0.02,7.16-0.02,10.74 c0.01,27.15,0.03,54.31,0.04,81.46c0.01,22.78,0.01,45.55,0,68.33c0,8.58-0.08,17.16-0.07,25.74c0,1.99,0.1,3.96-0.22,5.95 c-0.21,1.25-0.87,1.61-1.92,1.63c-1.25,0.02-2.5-0.04-3.75-0.04c-13.61,0.01-27.23,0.04-40.84,0.05c-3.16,0-6.33-0.03-9.49-0.04 c-0.77,0-1.5-0.17-2.17-0.51c-0.47-0.24-0.74-0.68-0.71-1.23C777.65,216.9,777.81,216.69,778.14,216.88 c0.52,0.76,1.92,1.14,2.53,0.68c0.33-0.25,0.2-0.46-0.01-0.71C779.95,216.03,778.97,216.04,778.14,216.88z"></path> <path class="st1" d="M247.45,218.93c-66.76,0-133.52,0-200.29,0c-5.33,0-10.66,0.02-15.99,0.02c-1.12,0-2.24-0.04-3.36-0.23 c-2.1-0.34-2.65-0.68-2.68-3.36c-0.08-7.45,0.01-14.91,0.01-22.36c0-49.6-0.01-99.19-0.02-148.79c0-6.37-0.03-12.74-0.04-19.12 c0-0.42-0.02-0.84,0.05-1.25c0.22-1.5,0.76-2.06,2.29-2.08c3.71-0.05,7.41-0.02,11.12-0.02c9.75,0,19.5,0.01,29.25,0.01 c1.77,0,3.54-0.03,5.3-0.04c1.38-0.01,2.04,0.55,2.08,1.77c0.03,1.05-0.8,1.76-2.11,1.76c-10.46,0-20.91-0.01-31.37-0.01 c-3.37,0-6.75-0.01-10.12,0c-2.28,0-2.53,0.36-2.52,2.6c0.04,9.66,0.03,19.33,0.03,28.99c0,49.36,0,98.72-0.01,148.08 c0,2.75-0.08,5.49-0.15,8.24c-0.03,1.3,0.32,1.79,1.6,1.81c3.41,0.05,6.83,0.04,10.25,0.04c139.28,0,278.56-0.01,417.85,0.03 c2.54,0,5.09-0.32,7.63-0.05c1.85,0.19,2.26,0.78,2.13,2.63c-0.04,0.57-0.28,0.76-0.79,0.91c-1.75,0.54-3.55,0.47-5.33,0.47 c-25.28-0.01-50.56-0.05-75.85-0.06c-46.32-0.01-92.64,0-138.96,0C247.45,218.92,247.45,218.93,247.45,218.93z M462.17,216.94 c1.34,0.51,2.68,0.71,4.04,0.7c0.46,0,0.83-0.21,0.93-0.66c0.1-0.47-0.36-0.6-0.65-0.81c-0.32-0.24-0.79-0.3-1.07-0.13 C464.42,216.66,463.33,216.85,462.17,216.94z M72.65,22.63c-0.25,0.04-0.83,0.09-1.37,0.26c-0.32,0.1-0.86,0.07-0.88,0.52 c-0.01,0.57,0.53,0.48,0.92,0.57c0.44,0.1,0.84,0.37,1.28,0.41c0.7,0.07,1.39-0.17,1.45-0.96C74.1,22.81,73.63,22.48,72.65,22.63z"></path> <path class="st2" d="M737.62,121.9c-0.01,6.83,0.07,13.66-0.09,20.49c-0.06,2.66,0.4,5.28,0.22,7.93c-0.1,1.57-0.13,1.67-1.72,1.67 c-3.87,0-7.75-0.02-11.62,0.02c-0.85,0.01-1.24-0.12-1.22-1.12c0.06-3.66,0-7.33,0-10.99c0-14.12,0.01-28.24,0-42.35 c0-1.66-0.15-3.31-0.21-4.97c-0.04-1.07,0.33-1.59,1.58-1.6c3.45-0.03,6.9-0.07,10.35,0.02c0.58,0.01,0.87,0.18,1.26,0.7 c1.48,2.01,3.09,3.91,4.66,5.85c4.17,5.13,8.31,10.29,12.54,15.38c3.63,4.38,7.44,8.61,10.75,13.38c0.53-1.32,0.78-2.57,0.77-3.88 c-0.06-9.99-0.08-19.99-0.2-29.98c-0.01-1.24,0.35-1.57,1.52-1.54c3.99,0.08,7.99,0.1,11.99,0.09c0.98,0,1.31,0.34,1.28,1.32 c-0.46,18.36-0.12,36.73-0.23,55.09c-0.01,0.87-0.15,1.77,0,2.61c0.29,1.56-0.81,1.92-1.81,1.92c-2.76-0.01-5.56-0.1-8.29,0.06 c-2.27,0.13-3.03-1.17-4.08-2.45c-6.49-7.85-13-15.68-19.42-23.59c-2.02-2.48-4.13-4.9-5.93-7.56c-0.76-1.12-1.32-1.28-2.07-0.76 c-0.77,0.66-0.63,1.35-0.07,2.05c0,0.47-0.01,0.94-0.01,1.41C736.97,121.38,737.18,121.65,737.62,121.9z"></path> <path class="st2" d="M615.36,121.99c-0.28-7.85,1.88-14.41,6.37-20.09c3.09-3.92,6.9-7.09,11.66-8.9c2.56-0.98,4.98-2.27,7.82-2.56 c3.26-0.33,6.5-0.53,9.77-0.46c8.05,0.17,14.99,3.12,21.06,8.36c3.78,3.26,6.22,7.41,8.21,11.85c0.7,1.55,0.95,3.34,1.19,5.05 c0.45,3.16,0.68,6.34,0.45,9.54c-0.2,2.64-0.9,5.21-1.79,7.64c-0.82,2.26-1.69,4.61-3.2,6.57c-1.52,1.97-2.99,4.01-4.86,5.66 c-4.36,3.85-9.42,6.46-15.11,7.55c-3.75,0.71-7.6,1.1-11.44,0.79c-7.47-0.6-14.21-3.04-19.95-8c-4.03-3.49-6.87-7.82-8.63-12.77 C615.66,128.78,615.03,125.14,615.36,121.99z M630.49,121.18c-0.05,0-0.09,0-0.14,0c0,0.58,0.03,1.17,0,1.75 c-0.28,4.56,1.57,8.37,4.44,11.67c3.15,3.62,7.29,5.4,12.09,5.73c4.21,0.29,8.18-0.49,11.76-2.7c4.04-2.5,6.48-6.22,7.61-10.81 c0.64-2.61,0.67-5.24,0.59-7.94c-0.1-3.14-1.12-5.96-2.81-8.32c-4.37-6.09-10.4-8.81-18.01-7.84c-4.93,0.63-8.88,2.78-12.03,6.6 c-1.66,2.02-2.65,4.38-3.39,6.77C630.1,117.65,630.49,119.48,630.49,121.18z"></path> <path class="st2" d="M501.5,121.36c0-9.54,0-19.07,0-28.61c0-1.83,0.14-2.03,2.01-1.94c9.33,0.43,18.67-0.11,27.98,0.26 c7.28,0.29,13.82,2.74,18.68,8.56c2.99,3.59,4.11,7.84,4.28,12.43c0.15,3.94-0.52,7.73-2.07,11.32c-0.67,1.55-1.88,2.85-3.11,4.04 c-1.71,1.64-3.51,3.19-5.67,4.24c-0.66,0.32-0.98,0.59-0.53,1.49c0.67,1.31,1.46,2.53,2.34,3.67c2.17,2.84,3.91,5.97,6.18,8.75 c1.12,1.37,1.99,2.95,3.21,4.27c0.5,0.54,0.62,1.24,0.38,1.86c-0.22,0.57-0.94,0.48-1.44,0.46c-4.16-0.2-8.33-0.14-12.49-0.18 c-0.92-0.01-1.61-0.53-2.17-1.28c-2.36-3.16-4.45-6.51-6.67-9.76c-1.1-1.61-2.26-3.19-3.37-4.8c-0.44-0.63-0.95-0.95-1.77-0.9 c-3.07,0.18-6.14-0.26-9.21-0.24c-1.76,0.01-2.04,0.26-2.05,1.95c-0.01,4.58-0.05,9.16,0,13.74c0.01,1.01-0.38,1.3-1.28,1.3 c-4.04-0.01-8.08-0.02-12.12,0.02c-0.81,0.01-1.03-0.4-1.06-1.04c-0.03-0.83,0-1.67,0-2.5c0-9.04,0-18.08,0-27.11 C501.54,121.36,501.52,121.36,501.5,121.36z M522.64,123.43c0.41,0.12,0.82,0.12,1.24-0.01c2.52,0.05,5-0.24,7.5-0.62 c3.5-0.53,6.58-2.86,7.69-6.24c0.47-1.42,0.45-2.86,0.43-4.32c-0.07-4.44-2.86-7.15-6.73-8.52c-2.58-0.92-5.24-0.29-7.86-0.68 c-2.12-0.32-4.32-0.11-6.49-0.15c-2-0.04-2.41,0.34-2.42,2.38c-0.02,5.08-0.01,10.16-0.01,15.24c0,3.51-0.11,3.02,2.9,2.92 c0.08,0,0.17,0.01,0.25,0.02c0.24,0.1,0.48,0.1,0.71,0C520.78,123.33,521.71,123.33,522.64,123.43z"></path> <path class="st2" d="M143.83,181.25c-1.63,2-3.85,3.32-5.74,5.02c-0.59,0.52-1.28,0.93-2.03,1.21c-1.27,0.47-2,1.31-1.82,2.75 c0.04,0.29,0.02,0.58,0.02,0.87c0.01,1.82-0.46,2.41-2.25,2.61c-1.06,0.12-2.09,0.32-3.14,0.5c-1.33,0.24-2.53-0.69-3.88-0.59 c-0.15,0.01-0.31-0.11-0.47-0.13c-2-0.26-2.56-0.67-2.46-2.65c0.1-1.91-0.69-2.78-2.32-3.57c-1.94-0.93-3.58-2.41-5.24-3.81 c-4.34-3.65-8.27-7.7-11.46-12.4c-3.9-5.74-7.16-11.85-10.25-18.06c-1.66-3.33-3.24-6.69-4.46-10.21 c-1.12-3.24-2.56-6.39-3.47-9.69c-1.12-4.05-2.52-8.01-3.62-12.07c-1.17-4.34-1.69-8.83-3.12-13.12c-0.58-1.75-0.49-3.72-0.85-5.56 c-0.4-2.04-0.85-4.1-0.9-6.16c-0.05-2.16-0.65-4.29-0.18-6.51c0.36-1.68,0.03-3.45,0.3-5.19c0.4-2.56,1.17-4.81,3.89-5.66 c2.34-0.73,4.49-1.88,6.77-2.72c2.67-0.98,5.31-2.07,8.17-2.5c1.76-0.26,3.39-1.11,5.24-1.16c1.04-0.03,1.62-1.17,1.42-2.23 c-0.13-0.68-0.34-1.36-0.55-1.99c-0.64-1.93,0.34-3.58,1.66-4.36c3.04-1.8,6.25-3.11,9.83-3.36c1.13-0.08,2.27-0.36,3.37-0.64 c1.59-0.41,3.2-0.34,4.8-0.37c0.17,0,0.33,0.02,0.5,0.02c2.03-0.07,2.41-0.47,2.4-2.46c0-0.75,0.02-1.5,0.02-2.25 c-0.01-1.85,1.1-3,2.95-3.03c1.53-0.02,3.04,0.02,4.34,1.01c0.5,0.38,0.77,0.78,0.71,1.46c-0.08,0.99-0.02,1.99-0.01,2.99 c0.02,1.76,0.46,2.22,2.2,2.3c1.7,0.08,3.42-0.09,5.11,0.21c3.99,0.7,8.07,1.06,11.73,3c1.26,0.66,2.7,1.25,3.09,2.83 c0.29,1.21,0.13,2.44-0.23,3.64c-0.54,1.8-0.06,2.62,1.73,3.1c0.99,0.27,1.98,0.54,3.04,0.47c1.12-0.07,1.9,0.83,2.95,1.11 c4.49,1.21,8.93,2.6,13.14,4.63c1,0.48,2.18,0.84,2.89,1.61c0.82,0.9,1.53,2.01,1.86,3.29c0.39,1.49,0.35,3.02,0.42,4.51 c0.19,4.1,0.13,8.21-0.62,12.27c-0.56,3-0.69,6.08-1.58,9c-0.88,2.87-1.49,5.79-2.21,8.69c-0.41,1.65-0.77,3.32-1.23,4.96 c-0.87,3.06-1.74,6.12-2.72,9.15c-0.87,2.7-1.8,5.38-2.7,8.06c-1.58,4.67-3.66,9.16-5.74,13.63c-1.06,2.27-2.37,4.43-3.4,6.71 c-1.53,3.38-3.66,6.39-5.76,9.41c-1.32,1.9-2.52,3.91-4.24,5.51c-1.83,1.55-3.54,3.22-4.94,5.18c0,0,0,0,0,0 c-0.32-0.01-0.47,0.17-0.53,0.46c0,0-0.02,0-0.02,0C144.02,180.93,143.92,181.09,143.83,181.25z M139.77,179.99L139.77,179.99 c0.77,0.06,1.07-0.68,1.64-0.97c0.91-0.47,1.59-1.16,1.34-2.36c-0.09-0.45,0.09-0.88,0.6-0.92c0.75-0.06,1.1-0.59,1.37-1.14 c0.54-1.05,1.16-1.98,2.13-2.69c0.56-0.41,1.02-0.96,1.52-1.45c0.72-0.94,1.5-1.84,2.15-2.82c1.16-1.76,2.25-3.57,3.37-5.36 c1.01-0.56,1.74-1.45,2.09-2.47c0.76-2.23,0.98-4.67,2.72-6.5c0.08-0.09,0.03-0.31,0.03-0.47c1.63-2.14,2.14-4.87,3.64-7.07 c0.09-0.13,0.07-0.32,0.13-0.47c0.86-1.97,1.15-4.18,2.48-5.95c1.05-1.26,1.58-2.66,1.19-4.33c-0.13-0.55,0.07-1.02,0.49-1.45 c0.77-0.78,1.34-1.67,1.19-2.85c0.92-3.76,1.85-7.51,3.16-11.16c0.45-1.25,0.86-2.48,0.72-3.83c-0.03-0.29,0.13-0.46,0.3-0.64 c0.55-0.29,0.78-0.56,0.58-1.33c-0.24-0.94,0.29-2.02-0.3-2.98c-0.03-0.05,0.14-0.28,0.26-0.37c1.02-0.78,1.25-1.87,1.21-3.07 c0.54-1.36,0.62-2.81,0.91-4.22c0.68-3.29,1.14-6.61,1.29-9.97c0.16-0.36,0.18-0.79-0.04-1.07c-0.95-1.17-0.63-2.37-0.25-3.62 c0.13-0.43,0.19-0.88,0.05-1.34c-0.07-1.06-0.12-2.12-0.22-3.17c-0.06-0.69-0.48-1.18-1.14-1.33c-1.93-0.42-3.63-1.43-5.44-2.14 c-3.21-1.26-6.47-2.33-9.85-3.08c-1.63-0.36-3.17-1.01-4.91-0.92c-2.15,0.11-2.17,0.03-2.42,2.18c-0.07,0.58-0.19,1.02-0.76,1.3 c-5.47,2.71-11.24,4.35-17.32,4.75c-4.22,0.28-8.47,0.32-12.67-0.26c-2.55-0.35-5.08-0.89-7.59-1.48 c-2.08-0.49-4.01-1.49-6.08-2.09c-1.57-0.45-3.07-1.15-3.4-3.17c-0.19-1.11-1.04-1.65-2.35-1.5c-1.47,0.16-2.84,0.51-4.24,0.96 c-3.24,1.04-6.54,1.89-9.72,3.13c-0.95,0.37-1.77,1.02-2.82,1.21c-3.29,0.58-4.66,2.49-4.23,5.79c0.04,0.29,0.09,0.57,0.13,0.86 c0.35,1.21,0.39,2.39-0.35,3.5c-0.27,0.4-0.2,0.86-0.12,1.3c0.01,0.54-0.03,1.09,0.05,1.62c0.31,2.23,0.75,4.44,0.95,6.67 c0.21,2.38,0.6,4.71,1.47,6.94c-0.37,0.91,0.36,1.38,0.88,1.77c0.72,0.54,0.72,1.05,0.45,1.8c-0.4,1.1-0.59,2.23-0.01,3.35 c-0.11,0.61,0.33,1.07,0.46,1.63c1.05,4.57,2.27,9.09,3.74,13.55c-0.14,0.91,0.01,1.92,0.74,2.36c1.34,0.81,1.38,1.94,1.27,3.23 c-0.07,0.92-0.13,1.84,0.75,2.48c1.52,4.06,3.2,8.05,5.02,11.98c-0.1,1.05,0.31,1.92,0.94,2.74c1.06,1.4,2.3,2.68,2.72,4.5 c0.1,0.45,0.38,0.88,0.48,1.38c0.09,0.45,0.11,1.05,0.8,1.1c-0.08,0.84,0.7,1.16,1.08,1.7c0.73,1.05,1.05,2.32,1.82,3.34 c1.17,1.54,2.34,3.07,3.52,4.61c-0.05,0.13,0.01,0.18,0.13,0.19c0.09,0.15,0.18,0.3,0.28,0.45c0.49,1.06,1.38,1.51,2.48,1.65l0,0 c0.03,0.15,0,0.35,0.09,0.44c1.07,1.04,1.6,2.4,2.35,3.64c0.87,1.43,1.7,3.04,3.47,3.69c0.2,0.21,0.37,0.48,0.62,0.61 c2.42,1.29,4.56,3.02,6.94,4.38c2.96,1.68,5.77,1.64,8.71,0.05c2.45-1.33,4.75-2.88,7.04-4.45 C139.64,180.28,139.79,180.21,139.77,179.99z M134.38,73.28c-2.83,0.04-5.66,0.08-8.49,0.11c-5,0.06-9.99-0.14-14.87-1.38 c-1.15-0.29-2.24-0.82-3.49-0.76c-0.75,0.03-0.94,0.11-0.56,0.92c0.36,0.77,0.59,1.7,0.53,2.53c-0.12,1.49,0.75,2.1,1.86,2.55 c0.98,0.4,2.03,0.66,3.04,0.97c2.99,0.92,6,1.65,9.11,2.07c1.49,0.2,2.99,0.04,4.45,0.28c3.11,0.53,6.21,0.14,9.27-0.2 c3.98-0.44,7.78-1.89,11.65-2.9c0.68-0.18,1.3-0.56,1.42-1.26c0.23-1.41,0.86-2.75,0.73-4.23c-0.05-0.53-0.23-0.66-0.75-0.74 c-1.11-0.16-1.96,0.58-2.94,0.74c-3.63,0.61-7.24,1.43-10.96,1.3L134.38,73.28z"></path> <path class="st2" d="M316.94,151.99c-1.92,0-3.83-0.07-5.75,0.02c-1.31,0.07-2.04-0.55-2.47-1.64c-1.22-3.08-2.43-6.17-3.61-9.26 c-0.77-2.03-0.82-2.11-3.03-2.11c-6.91-0.01-13.83,0-20.74,0c-0.92,0-1.84-0.04-2.75,0.02c-1.66,0.11-2.5,0.65-2.79,2.19 c-0.42,2.2-1.49,4.12-2.38,6.11c-0.47,1.04-0.92,2.07-1.17,3.2c-0.24,1.13-1.31,1.42-2.23,1.44c-4.08,0.07-8.16,0.05-12.24,0.01 c-1.02-0.01-1.65-0.93-1.18-1.68c2.6-4.18,4.27-8.8,6.28-13.24c3.12-6.87,6.06-13.81,9.19-20.67c0.72-1.58,1.67-3.12,2.26-4.71 c1.25-3.35,2.68-6.61,4.14-9.87c1.12-2.49,2.19-5,3.48-7.42c0.4-0.75,0.59-1.61,0.92-2.4c0.3-0.72,0.81-1.04,1.65-1.01 c1.75,0.06,3.5,0.04,5.25,0c2.07-0.05,4.14-0.15,6.2-0.24c1.26-0.06,2.26,0.69,2.57,1.95c0.08,0.32,0.21,0.63,0.36,0.93 c3.47,6.72,6.22,13.75,9.37,20.61c4.89,10.67,9.52,21.45,14.32,32.15c0.54,1.21,1.21,2.36,1.7,3.59c0.67,1.68,0.4,2.08-1.38,2.13 c-2,0.05-4,0.01-5.99,0.01C316.94,152.07,316.94,152.03,316.94,151.99z M290.45,127.75c0,0.02,0,0.03,0,0.05 c2.25,0,4.49-0.01,6.74,0c1.67,0.01,2.12-0.55,1.53-2.12c-0.3-0.79-0.9-1.48-1.14-2.29c-0.86-2.86-2.26-5.5-3.29-8.28 c-1.01-2.73-2.47-5.29-3.04-8.18c-0.1-0.52-0.45-0.57-0.8-0.19c-0.31,0.34-0.51,0.74-0.69,1.17c-2.43,5.95-4.87,11.9-7.34,17.83 c-0.64,1.54-0.41,1.98,1.3,1.99C285.95,127.76,288.2,127.75,290.45,127.75z"></path> <path class="st2" d="M376.46,89.89c4.45-0.07,8.85,0.42,13.1,1.74c2.25,0.7,4.4,1.73,6.54,2.74c1.37,0.65,1.47,1.57,0.89,3.01 c-0.86,2.13-1.94,4.16-2.6,6.37c-0.71,2.38-1.85,2.83-4.12,1.71c-2.67-1.32-5.38-2.55-8.33-3.06c-3.91-0.67-7.85-1.05-11.74,0.11 c-1.65,0.49-3.07,1.48-4.17,2.82c-1.44,1.74-0.99,4.94,0.75,6.37c1.85,1.53,4.11,2.12,6.31,2.73c3.33,0.93,6.74,1.56,10.12,2.34 c0.79,0.18,1.53,0.55,2.32,0.73c4.5,1.04,8.31,3.32,11.51,6.59c1.29,1.32,2.03,3.05,2.38,4.84c0.34,1.72,0.53,3.5,0.57,5.26 c0.05,2.97-0.73,5.72-2.15,8.37c-2.37,4.42-6.3,6.66-10.72,8.48c-3.56,1.47-7.24,1.57-10.97,1.74c-1.23,0.06-2.46,0.2-3.7,0.21 c-4.2,0.04-8.25-0.78-12.31-1.76c-3.56-0.87-6.61-2.73-9.76-4.42c-1.04-0.56-1.27-1.28-0.8-2.42c1.24-3.04,2.95-5.86,4.18-8.9 c0.33-0.82,0.77-0.37,1.18-0.17c2.58,1.32,5.11,2.7,7.85,3.73c4.83,1.82,9.83,2.25,14.87,1.88c2.54-0.19,5.15-0.84,6.9-3.07 c1.73-2.21,0.76-5.79-1.78-7.01c-3.9-1.87-8.13-2.56-12.26-3.65c-4.24-1.12-8.6-2-12.37-4.48c-3-1.97-5.73-4.2-6.95-7.72 c-0.46-1.33-0.57-2.79-0.71-4.22c-0.84-8.78,4.03-15.21,11.15-18.25c2.86-1.22,5.74-2.16,8.9-2.33 C372.49,90.09,374.48,89.93,376.46,89.89z"></path> <path class="st2" d="M409.62,119.3c-0.02-10.25,0.2-20.49-0.11-30.74c-0.03-1.11,0.64-1.55,1.52-1.53 c2.77,0.06,5.55-0.28,8.32,0.19c0.93,0.16,1.91,0.01,2.87,0.02c0.86,0.01,1.31,0.31,1.3,1.34c-0.04,6.03-0.01,12.07,0,18.1 c0,0.59-0.08,1.25,0.57,1.53c0.61,0.26,1.1-0.17,1.56-0.54c2.39-1.92,5.29-2.54,8.18-3.14c1.88-0.39,3.8-0.36,5.7-0.26 c6.42,0.33,11.81,2.56,15.28,8.35c1.19,1.99,1.7,4.16,2.18,6.37c0.51,2.34,0.68,4.69,0.79,7.09c0.33,7.35,0,14.71,0.2,22.06 c0.03,0.95-0.05,1.88-0.2,2.83c-0.15,0.95-0.62,1.22-1.46,1.27c-1.45,0.08-2.88-0.21-4.32-0.22c-2.44-0.02-4.89-0.23-7.32,0.21 c-0.52,0.09-0.91-0.08-0.96-0.68c-0.06-0.62-0.15-1.24-0.15-1.86c-0.03-7.37,0.02-14.74-0.1-22.11c-0.03-2.11-0.39-4.21-1.14-6.27 c-1-2.74-3.11-3.84-5.63-4.34c-2.37-0.47-4.78-0.41-7.09,0.59c-1.63,0.71-3.09,1.51-3.95,3.22c-1.21,2.39-1.97,4.85-1.98,7.53 c-0.01,6.91-0.01,13.83-0.06,20.74c-0.02,2.51,0.67,2.92-2.9,2.96c-3.17,0.04-6.33-0.07-9.5,0.02c-1.2,0.03-1.59-0.48-1.61-1.49 c-0.03-1.37-0.01-2.75-0.01-4.12C409.62,137.38,409.62,128.34,409.62,119.3z"></path> <path class="st2" d="M225.08,104.64c-0.1-1.22-0.74-1.7-1.98-1.69c-5.25,0.05-10.5,0.05-15.75,0.05c-1.42,0-1.87-0.42-1.81-1.83 c0.14-3,0.13-5.99,0.02-8.99c-0.04-0.93,0.07-1.6,1.42-1.24c1.01,0.27,2.15,0.06,3.23,0.06C225.8,91,241.38,91,256.97,91 c2.05,0,2.06,0.03,2.05,2.08c-0.01,2.33,0.08,4.67-0.02,7c-0.1,2.49-0.43,2.87-2.88,2.9c-4.79,0.06-9.58,0-14.37,0.01 c-1.68,0-1.96,0.29-1.97,1.93c-0.03,11.2-0.06,22.41-0.05,33.61c0,3.87,0.09,7.74,0.13,11.61c0.02,1.72-0.09,1.82-1.75,1.84 c-3.54,0.04-7.08-0.01-10.62,0.13c-2.38,0.1-2.41,0.21-2.41-2.36c-0.01-15.04,0.01-30.07,0.01-45.11c0,0,0.07-0.01,0.07-0.01 L225.08,104.64z"></path> <path class="st2" d="M580.99,115.14c0,7.54,0.01,15.07-0.01,22.61c0,2.06,0.27,2.21,2.12,2.18c8.32-0.16,16.64,0.26,24.95-0.1 c0.37-0.02,0.75-0.09,1.12-0.07c1.52,0.07,2.43,0.19,2.36,2.15c-0.11,2.95-0.08,5.91-0.03,8.87c0.02,0.97-0.43,1.22-1.24,1.22 c-1.62,0-3.25,0.01-4.87,0.01c-12.04,0-24.07,0-36.11,0.01c-0.21,0-0.42-0.02-0.62,0.03c-2.19,0.47-2.42,0.35-2.43-1.81 c-0.05-12.24-0.07-24.48-0.09-36.72c-0.01-6.66,0.01-13.32,0.03-19.98c0-0.42,0.02-0.83,0.05-1.25c0.06-0.84,0.38-1.31,1.37-1.3 c4.2,0.05,8.41,0.05,12.61,0.02c1.02-0.01,0.76,0.64,0.76,1.16C580.99,99.81,580.99,107.47,580.99,115.14z"></path> <path class="st2" d="M471.66,122c0-9.24,0-18.48-0.01-27.72c0-0.75-0.04-1.5-0.15-2.24c-0.13-0.92,0.32-1.16,1.13-1.17 c3.83-0.03,7.66-0.1,11.48-0.12c2.12-0.01,2.33,0.17,2.29,2.22c-0.24,12.27,0,24.55-0.11,36.82c-0.06,6.74,0,13.49,0,20.23 c0,1.58-0.4,1.97-1.96,1.97c-3.54,0-7.08,0-10.61,0c-1.94,0-2.04-0.09-2.04-2.02c0-9.32,0-18.65,0-27.97 C471.67,122,471.66,122,471.66,122z"></path> <path class="st2" d="M693.45,91.87c-0.06-0.81,0.33-1.16,1.12-1.09c4.24,0.38,8.48,0.06,12.73,0.19c0.93,0.03,1.06,0.41,0.93,1.11 c-0.46,2.48-0.22,4.98-0.22,7.47c-0.02,16.69-0.01,33.39-0.01,50.08c0,0.37,0.04,0.76-0.02,1.12c-0.14,0.85-0.48,1.29-1.53,1.27 c-3.91-0.08-7.82-0.08-11.74,0c-1.08,0.02-1.28-0.33-1.28-1.31c0.02-11.2-0.01-22.4-0.03-33.59c-0.01-7.95-0.04-15.9-0.06-23.85 c0-0.46,0.07-0.91,0.11-1.37c0,0,0.04-0.02,0.04-0.02L693.45,91.87z"></path> <path class="st2" d="M579.19,214.05c1.5-0.65,3.06-1.2,4.49-1.97c2.35-1.28,2.75-1.24,4.03,1.07c0.24,0.44,0.42,0.25,0.67,0.14 c2.28-1.05,4.56-2.09,6.82-3.16c0.84-0.4,1.03-1.26,1.25-2.07c0.59-2.17,3.06-3.19,4.79-1.78c1.33,1.08,2.43,1.25,3.75,0.21 c0.22-0.18,0.5-0.29,0.77-0.39c1.17-0.45,1.88-0.02,1.94,1.24c0.06,1.4-0.1,2.81,0.51,4.16c0.17,0.38,0.36,0.69,0.71,1.13 c0.48-1.64,0.5-3.26,0.53-4.81c0.09-4.25,2.92-5.41,6.27-4.06c0.86,0.35,0.68,1.3,0.72,1.93c0.1,1.42,0.21,2.88-0.46,4.26 c-0.68,1.41-0.52,2.94-0.34,4.53c0.66-1.08,1.68-1.83,2.37-2.87c1.05-1.6,2.13-3.18,3.21-4.76c0.26-0.38,0.52-0.75,0.84-1.08 c0.51-0.53,1.2-0.33,1.77-0.24c0.62,0.11,0.35,0.74,0.38,1.16c0.08,1.12-0.34,2.14-0.82,3.1c-2.05,4.11-4.46,7.92-8.06,10.93 c-1.82,1.52-3.64,1.49-5.64,0.86c-1.43-0.45-1.24-1.85-1.42-2.89c-0.19-1.12-0.03-2.31,0.06-3.46c0.04-0.54-0.1-0.76-0.62-0.75 c-0.25,0-0.5-0.02-0.75,0.01c-1.13,0.14-1.94-0.13-2.72-1.14c-1.21-1.56-3.12-0.99-3.88,0.79c-0.84,1.98-1.14,4.1-1.82,6.12 c-0.55,1.63-2.71,3.48-5,2.96c-0.94-0.21-1.22-1.01-1.31-1.88c-0.16-1.6,0.53-2.97,1.16-4.37c0.19-0.42,0.63-0.99,0.21-1.37 c-0.41-0.37-0.96-0.04-1.47,0.2c-1.7,0.81-3.1,2.08-4.73,3.01c-2.14,1.21-4.31,1.4-6.39,0.1c-1.45-0.9-2.6-0.02-3.87,0.24 c-2.69,0.55-5-0.76-4.67-3.88c0.1-1,0.52-1.91,1.1-2.7c2.13-2.91,4.97-4.64,8.62-4.81c0.76-0.04,1.55,0.14,2.31,0.3 c0.75,0.15,1.05,0.61,1,1.45c-0.05,0.81-0.48,0.89-1.12,0.99c-1.42,0.23-2.85,0.36-3.65,1.93c-0.3,0.58-1.14,0.89-1.73,1.32 C579.08,213.84,579.13,213.94,579.19,214.05z"></path> <path class="st2" d="M745.07,205.2c1.72-0.73,3.5-1.06,5.37-0.98c0.6,0.03,1.27-0.03,1.47,0.64c0.19,0.61,0.26,1.32-0.23,1.9 c-0.11,0.13-0.23,0.24-0.34,0.37c-0.33,0.41-1.2,0.57-0.8,1.32c0.35,0.64,1.07,0.25,1.61,0.28c0.61,0.03,1.07-0.42,1.52-0.78 c1.63-1.28,2.54-3.08,3.25-4.94c1.54-4.02,3.05-8.05,5.02-11.89c0.65-1.27,1.47-2.42,2.77-3.12c1.25-0.67,3.81,0.58,4.01,1.96 c0.08,0.55-0.32,0.92-0.61,1.32c-3.08,4.2-5.79,8.59-7.52,13.54c-0.88,2.5-2.31,4.78-2.96,7.38c-0.38,1.53-1.06,2.95-1.71,4.38 c-0.26,0.58-0.47,1.42-1.5,0.87c-1.18-0.63-1.73-1.55-1.32-2.44c0.08-0.18,0.26-0.33,0.31-0.52c0.22-0.74,0.74-1.73,0.06-2.18 c-0.58-0.38-1.54,0.18-2.07,0.75c-0.82,0.89-1.79,1.06-2.91,0.98c-2.12-0.15-3.35-2.04-2.62-4.07c0.15-0.43,0.39-0.82,0.53-1.25 c0.1-0.32,0.45-0.65,0.06-1.02c-0.37-0.34-0.78-0.26-1.17-0.12c-1.11,0.4-2.07,1.84-2.06,3.05c0.01,1.32,0.08,2.63-0.76,3.82 c-0.93,1.32-2.24,1.07-3.5,1.05c-1.09-0.02-1.91-0.72-2.4-1.58c-0.39-0.67,0.38-1.35,0.5-2.08c0.08-0.45,0.36-0.97,0.03-1.27 c-0.36-0.33-0.73,0.17-1.08,0.36c-0.94,0.51-1.94,0.9-2.65,1.8c-0.49,0.62-1.39,0.43-1.87,0.22c-1.7-0.75-3.44-0.35-5.16-0.42 c-1.08-0.04-1.84-0.33-2.79-1.08c-1.16-0.92-3.02-1-4.51-1.67c-0.25-0.11-0.45,0.29-0.62,0.53c-0.47,0.65-0.85,1.39-0.88,2.17 c-0.05,1.3-0.85,2.23-1.39,3.28c-0.42,0.82-2.63,1.09-3.39,0.52c-0.6-0.44-0.38-1.13-0.24-1.59c0.88-2.72,1.65-5.48,2.8-8.11 c0.32-0.74,0.85-1.32,1.42-1.87c0.69-0.66,1.52-0.74,2.09-0.05c0.86,1.05,1.81,0.74,2.8,0.5c1.37-0.33,1.51-0.24,1.57,1.15 c0.01,0.21,0.02,0.42,0.02,0.62c0,0.7,0.02,1.6,0.57,1.87c0.47,0.23,0.76-0.71,1.14-1.11c1.48-1.56,2.89-3.1,5.27-3.34 c1.54-0.16,2.21,0.09,2.58,1.59c0.46,1.9,1.87,2.47,3.51,1.41c1.43-0.92,2.8-1.86,3.57-3.53c0.52-1.12,3.69-1.83,4.76-1.22 c0.59,0.33,0.66,0.92,0.59,1.53c-0.2,0.08-0.16,0.2-0.07,0.34c-0.15,0.11-0.3,0.22-0.45,0.32c-0.54-0.03-0.89,0.4-1.35,0.57 c-0.25,0.09-0.61,0.28-0.39,0.63c0.23,0.37,0.61,0.25,0.85-0.01C744.16,205.57,744.61,205.4,745.07,205.2z"></path> <path class="st2" d="M330.42,116.56c-1.27,0-2.54,0.35-3.82,0.02c-0.81-0.21-1.02-0.62-0.81-1.35c0.87-3,1.71-6,2.62-8.99 c0.55-1.8,0.08-3.95-1.44-5.06c-1.77-1.29-1.86-3.28-2.16-5.06c-0.69-4.05,1.65-8.03,5.63-9.1c3.23-0.87,6.61-0.61,9.37,1.69 c0.94,0.78,1.48,2,1.79,3.21c0.53,2.09,0.42,4.21,0.03,6.33c-0.94,5.25-3.63,9.88-5.34,14.85c-0.23,0.67-0.6,1.3-0.72,1.98 c-0.21,1.13-0.88,1.49-1.91,1.48C332.58,116.55,331.5,116.56,330.42,116.56z"></path> <path class="st2" d="M561.25,225.43c-3.56,0.66-6.03-1.68-8.62-3.69c-0.59-0.45-0.68-1.2-0.86-1.87 c-1.22-4.58,0.04-8.84,1.57-13.11c1.58-4.42,4.96-7.4,8.12-10.59c4.26-4.3,9.71-6.44,15.21-8.49c1.91-0.71,3.95-0.67,5.96-0.23 c0.27,0.06,0.47,0.16,0.6,0.38c0.52,0.9,1.01,1.81,1.55,2.7c0.32,0.54,0.23,0.82-0.41,0.95c-1.1,0.23-2.16,0.26-3.29,0.08 c-2.94-0.45-5.46,0.76-7.92,2.19c-5.29,3.08-8.88,7.8-12.33,12.66c-1.57,2.22-2.84,4.59-2.82,7.41c0.01,1.27,0.22,2.57,0.85,3.67 c0.79,1.38,2.23,2,3.72,2.18c2.22,0.27,4.37-0.19,6.31-1.36c0.73-0.44,1.56-0.7,2.12-0.11c0.65,0.67,0.16,1.52-0.37,2.13 c-1.11,1.29-2.15,2.68-3.46,3.74C565.54,225.42,563.48,225.66,561.25,225.43z"></path> <path class="st2" d="M714.54,196.66c0,2.24-1.25,3.91-2.63,5.46c-0.73,0.83-1.54,1.64-2.55,2.18c-0.24,0.13-0.53,0.31-0.42,0.67 c0.1,0.32,0.39,0.23,0.62,0.27c0.4,0.07,0.8,0.14,1.17,0.27c0.54,0.2,1.12,0.35,1.46,0.89c0.62,0.97,0.46,3.81-0.16,4.77 c-2.54,3.96-6.48,5.95-10.69,7.45c-1.65,0.59-3.51,0.62-5.29,0.82c-0.65,0.07-1.03,0.3-1.38,0.84c-0.74,1.15-1.63,1.46-2.49,0.99 c-1.03-0.56-1.58-2.06-1.26-3.15c1.06-3.6,2.83-6.94,4.07-10.46c1.56-4.42,3.58-8.66,4.99-13.13c0.69-2.18,1.05-2.33,3.32-2.32 c1,0,1.33,0.73,1.84,1.29c0.44,0.48,0.71,0.72,1.51,0.33c1.63-0.8,3.45-0.99,5.28-0.85C713.47,193.09,714.54,194.63,714.54,196.66z M698.07,216.23c0.58,0.12,1.23-0.06,1.83-0.35c2.63-1.27,5.08-2.8,7.09-4.96c0.44-0.48,0.68-1.02,0.74-1.67 c0.05-0.49-0.13-0.84-0.61-0.93c-0.86-0.15-1.78-0.35-2.55,0.15c-1.18,0.75-2.46,1.04-3.8,1.28c-2.19,0.4-2.84,1-3.01,2.53 c-0.1,0.88-0.4,1.69-0.77,2.48C696.32,216.18,696.34,216.21,698.07,216.23z M700.24,205.4c0.01,0.52-0.15,0.9,0.25,1.09 c0.38,0.18,0.61-0.12,0.85-0.35c0.3-0.28,0.6-0.56,0.92-0.84c2.15-1.89,4.3-3.79,6.45-5.67c0.58-0.51,0.73-1.09,0.42-1.78 c-0.29-0.66-0.87-0.65-1.48-0.63c-0.61,0.02-1.15,0.21-1.62,0.56c-1.24,0.91-2.49,1.81-3.56,2.92 C701.17,202.07,700.65,203.82,700.24,205.4z"></path> <path class="st2" d="M172.57,27.96c0.04,3.83-1.69,6.65-4.93,8.61c-0.33,0.2-1.03,0.37-0.46,0.96c0.41,0.43,0.27,1.66,1.5,1.01 c0.47-0.25,0.94-0.51,1.42-0.74c1.14-0.54,2.43-0.26,2.83,0.62c0.43,0.94-0.03,2.49-1.04,2.9c-2.71,1.1-6.95,1.92-9.62-0.88 c-1.73-1.82-4.03-2.44-6.17-3.46c-4.26-2.03-6.33-6.38-5.53-10.95c1.27-7.32,8.16-9.88,14.02-8.27c0.55,0.15,1.09,0.33,1.63,0.49 C170.79,19.66,172.55,23.53,172.57,27.96z M161.63,33.55c3.56,0.1,5.27-2,5.62-5.04c0.37-3.22-2.26-6.42-4.54-6.5 c-4.82-0.18-6.58,2.38-6.89,5.47C155.48,31.04,157.94,33.39,161.63,33.55z"></path> <path class="st2" d="M638.68,201.7c-0.2,1.35-0.69,2.33-1.92,2.8c-0.38,0.14-0.35,0.19-0.13,0.62c0.62,1.17,0.11,2.07-1.19,2.42 c-1.65,0.45-2.41,1.06-3.34,2.75c1.33-0.02,2.36-0.67,3.44-1.21c0.52-0.26,1-0.55,1.61-0.62c0.89-0.09,1.33,0.37,1.54,1.12 c0.23,0.79,0.62,1.03,1.4,0.67c2.7-1.27,5.41-2.51,8.11-3.76c0.69-0.32,1.04-0.95,1.36-1.57c0.35-0.69,0.78-0.83,1.51-0.55 c3.36,1.33,4.97,4.82,3.96,8.3c-0.59,2.02-1.05,4.01-3.08,5.17c-2.41,1.39-4.89,1.09-7.38,0.39c-0.72-0.2-0.96-0.78-1.12-1.5 c-0.84-3.9-1.31-3.13-3.59-1.54c-1.35,0.94-2.88,1.42-4.45,1.77c-0.68,0.15-1.2-0.3-1.68-0.68c-1.16-0.92-2.28-0.98-3.66-0.35 c-1.54,0.7-3.26,0.27-4.9,0.25c-0.55-0.01-1.29-2.38-1.21-3.21c0.2-1.9,1.15-3.35,2.42-4.71c1.71-1.83,4.03-2.26,6.23-2.99 c0.72-0.24,1.54-0.2,2.31-0.29c0.19-0.02,0.44,0.06,0.49-0.23c0.04-0.24-0.16-0.35-0.3-0.5c-0.81-0.9-1.83-0.88-2.87-0.65 c-0.32,0.07-0.64,0.15-0.97,0.15c-1.01,0-1.38-0.54-0.89-1.44c0.93-1.71,2.03-2.35,4-1.51C635.8,201.36,637.11,201.97,638.68,201.7 z M650.65,211.59c-0.63,0.15-0.92,0.48-0.88,1.05c0.01,0.08,0.2,0.22,0.25,0.2C650.51,212.61,650.72,212.22,650.65,211.59z"></path> <path class="st2" d="M245.56,27.7c0-2.91,0.02-5.83-0.01-8.74c-0.01-1,0.34-1.44,1.37-1.41c3.12,0.09,6.25,0.05,9.36,0.22 c1.96,0.11,3.86,0.68,5.1,2.39c1.73,2.38,2.28,5.96,0.8,8.79c-0.35,0.66-1.1,1.11-1.67,1.65c-0.8,0.76-1.07,1.46-0.15,2.41 c0.94,0.98,1.93,1.94,2.45,3.27c0.34,0.89,0.14,1.29-0.8,1.49c-3.24,0.7-4.32,0.18-6.29-3.29c-0.74-1.3-1.67-2.08-3.27-2.01 c-1.04,0.04-1.43,0.49-1.44,1.43c-0.01,0.37,0.01,0.75,0.01,1.12c-0.01,3.55-1.02,3.13-3.7,2.85c-1.9-0.2-1.83-0.42-1.79-2.45 c0.05-2.58,0.01-5.16,0.01-7.74C245.54,27.7,245.55,27.7,245.56,27.7z M251.01,25.4c0,0.54,0.04,1.09-0.01,1.62 c-0.06,0.71,0.13,1,0.94,1.03c1.56,0.07,3.05-0.19,4.53-0.56c0.34-0.09,0.82-0.11,1.03-0.56c0.84-1.82-0.27-4.16-2.2-4.63 C251.48,21.36,251.01,21.7,251.01,25.4z"></path> <path class="st2" d="M218.06,37.91c-1.04-0.09-1.42-0.65-1.32-1.68c0.52-5.72,0.19-11.45,0.26-17.17c0.01-0.81-0.01-1.28,1.13-1.36 c4.11-0.28,8.23,0.01,12.34-0.17c0.49-0.02,0.93,0.32,1.45,0.26c0.17-0.02,0.5,0.15,0.51,0.26c0.16,1.07,0.25,2.2-0.07,3.21 c-0.24,0.75-1.18,0.75-1.91,0.75c-2.25,0.02-4.5,0.08-6.74-0.02c-1.24-0.05-1.49,0.54-1.48,1.56c0.01,1.97,0,1.98,2,1.98 c1.91,0,3.83,0.02,5.74-0.03c0.85-0.02,1.38,0.14,1.32,1.14c-0.02,0.31,0.19,0.62,0.22,0.94c0.17,1.76-0.15,2.1-1.89,2.25 c-2.04,0.18-4.08,0.02-6.11-0.04c-1.18-0.03-1.57,0.42-1.5,1.6c0.1,1.79,0.32,2.25,1.64,2.18c2.66-0.15,5.31,0.2,7.96,0.18 c0.8-0.01,1.19,0.23,1.19,1.15c0.01,2.93-0.13,3.04-3.06,3.01c-3.62-0.04-7.24,0.05-10.86,0.07c-0.25,0-0.5-0.04-0.74-0.06 c0,0-0.02-0.07-0.02-0.07L218.06,37.91z"></path> <path class="st2" d="M303.3,17.62c0.58,0,1.17-0.02,1.75,0c0.72,0.03,1.2,0.36,1.51,1.06c0.84,1.91,1.86,3.75,2.6,5.69 c1.51,3.96,3.62,7.64,5.26,11.53c0.51,1.21,0.31,1.63-1,1.83c-0.6,0.09-1.2,0.19-1.8,0.26c-2.24,0.26-2.62-0.62-3.08-2.41 c-0.2-0.76-0.57-1.19-1.24-1.33c-2.19-0.46-4.43-0.58-6.65-0.39c-1.7,0.15-2.1,0.55-2.35,2.41c-0.11,0.83-0.44,1.03-1.15,1.28 c-1.4,0.48-2.76,0.66-4.15,0.08c-0.5-0.21-0.87-0.42-0.48-1.17c2.35-4.64,4.08-9.56,6.51-14.17c0.55-1.04,1.03-2.15,1.36-3.27 c0.29-0.98,0.76-1.44,1.79-1.32c0.37,0.04,0.75-0.03,1.12-0.05C303.3,17.65,303.3,17.64,303.3,17.62z M303.71,29.77 c1.72,0.02,2.19-0.39,1.73-1.76c-0.4-1.2-1.02-2.33-1.62-3.46c-0.25-0.47-0.62-0.49-0.85,0.11c-0.32,0.84-0.69,1.67-1.01,2.52 C301.12,29.41,301.35,29.75,303.71,29.77z"></path> <path class="st2" d="M137.54,38.03c-1.24-0.21-2.56-0.54-3.05-2.08c-0.48-1.51-1.4-2.12-3.04-2.05c-1.61,0.07-3.24,0.05-4.86,0.09 c-1.07,0.02-1.55,0.5-1.83,1.46c-0.62,2.21-0.81,2.32-3.09,2.33c-0.71,0-1.42,0.04-2.12-0.02c-1-0.09-1.24-0.6-0.84-1.52 c2.58-5.93,5.46-11.71,7.85-17.73c0.2-0.51,0.46-0.85,1.07-0.83c1.29,0.04,2.58,0.04,3.87,0.06c0.55,0.01,1.01,0.21,1.15,0.77 c0.83,3.2,2.74,5.91,3.98,8.92c1.27,3.06,2.55,6.12,3.93,9.13c0.44,0.96-0.29,1.01-0.72,1.14 C139.16,37.91,138.41,37.92,137.54,38.03z M129.35,29.8c2.34,0,2.72-0.65,1.67-2.76c-0.35-0.7-0.67-1.42-1.05-2.1 c-0.3-0.53-0.67-0.83-1.02,0c-0.38,0.87-0.84,1.7-1.17,2.59C127.1,29.35,127.43,29.8,129.35,29.8z"></path> <path class="st2" d="M185.01,24.71c0-2,0.02-4-0.01-6c-0.01-0.85,0.32-1.23,1.17-1.18c0.98,0.05,1.96,0.01,2.95,0.17 c0.83,0.13,0.84,0.45,0.9,1.1c0.38,3.73,0.15,7.47,0.23,11.2c0.05,2.1,1.45,3.37,3.5,3.54c3.13,0.26,4.25-1.79,4.25-4.23 c0-3.5,0.03-7-0.02-10.49c-0.01-0.78,0.28-1.19,0.96-1.25c1.27-0.11,2.55-0.15,3.8,0.21c0.47,0.14,0.52,0.49,0.53,0.87 c0.04,3.91,0.27,7.84,0.07,11.74c-0.23,4.47-3.19,7.32-7.65,7.74c-3.59,0.33-6.93-0.13-9.18-3.44c-0.94-1.39-1.52-2.88-1.49-4.59 c0.03-1.79,0.01-3.58,0.01-5.37C185.02,24.71,185.02,24.71,185.01,24.71z"></path> <path class="st2" d="M663.01,214.79c-0.11-1.07,0.27-1.91,0.81-2.64c1.73-2.33,3.88-4.04,6.87-4.43c1.13-0.15,1.46-0.75,1.9-1.82 c1.1-2.7,1.63-5.63,3.17-8.15c0.26-0.43,0.61-0.8,1.07-1.02c0.75-0.35,1.57-0.51,2.25,0.02c0.69,0.54,0.54,1.34,0.25,2.07 c-1.2,3-2.41,6-3.65,8.99c-0.43,1.03-1.38,1.78-1.64,2.91c-0.05,0.2-0.42,0.35-0.08,0.61c0.22,0.17,0.44,0.15,0.7,0.1 c1.69-0.29,2.85-1.41,3.97-2.56c0.71-0.73,1.5-0.84,2.37-0.49c1.29,0.51,2.08,1.56,2.44,2.83c0.88,3.18-2.34,7.01-5.61,6.76 c-0.8-0.06-1.51-0.42-2.17-0.81c-0.92-0.54-1.77-0.59-2.68-0.03c-1.08,0.66-2.1,0.77-3.21-0.09c-0.84-0.64-1.92-0.36-2.89-0.17 c-0.92,0.18-1.78,0.24-2.67-0.19C663.34,216.26,662.69,215.78,663.01,214.79z"></path> <path class="st0" d="M489.58,212.65c0-2.48,0.07-4.65-0.03-6.8c-0.05-1.15,0.53-1.45,1.44-1.55c0.45-0.05,0.92-0.03,1.37,0 c2.64,0.22,5.3-0.18,7.94,0.33c1.58,0.3,2.52,1.02,3.04,2.66c0.44,1.36,0.42,2.45-0.33,3.61c-0.55,0.84-0.55,1.61,0.39,2.26 c0.53,0.37,0.74,0.97,0.85,1.61c0.53,3.23-0.6,4.9-3.8,5.55c-3.13,0.64-6.3,0.32-9.45,0.32c-0.96,0-1.47-0.49-1.44-1.58 C489.61,216.82,489.37,214.57,489.58,212.65z M496.54,213.9c-0.54,0-1.1-0.08-1.62,0.02c-1.28,0.24-1.87,0.94-1.79,1.97 c0.06,0.84,1.28,2.09,2.07,1.96c1.16-0.19,2.33-0.06,3.47-0.18c0.98-0.1,1.82-0.7,1.88-1.72c0.05-1-0.72-1.61-1.66-1.92 C498.13,213.79,497.34,213.78,496.54,213.9z M496.35,210.89c0,0.01,0,0.01,0,0.02c0.5,0,1,0.07,1.49-0.01 c0.98-0.16,1.71-0.85,1.86-1.73c0.17-0.97-0.7-1.4-1.53-1.66c-1.04-0.32-2.13-0.47-3.19-0.26c-0.92,0.18-1.83,0.68-1.87,1.69 c-0.04,0.96,0.62,1.72,1.63,1.93C495.26,210.98,495.81,210.89,496.35,210.89z M491.03,219.22c0.36,0.55,0.77,0.41,1.12,0.41 c1.95,0.02,3.9,0.02,5.85-0.01c0.49-0.01,0.98-0.13,1.47-0.2c0.21-0.03,0.43-0.08,0.41-0.35c-0.01-0.19-0.18-0.26-0.36-0.27 c-1.4-0.07-2.79-0.5-4.2-0.14c-0.45,0.12-0.92,0.2-1.35,0.07C492.93,218.42,492.04,218.82,491.03,219.22z"></path> <path class="st2" d="M101.48,17.66c2.41,0,4.83,0.04,7.24-0.02c1.15-0.03,1.76,0.3,1.56,1.56c-0.06,0.37-0.06,0.76,0,1.12 c0.26,1.51-0.51,2.19-2.31,1.89c-0.7-0.12-1.38-0.2-2.08-0.2c-1.51,0.01-1.86,0.36-1.87,1.92c-0.01,4.04-0.01,8.07,0.01,12.11 c0,0.72-0.05,1.34-0.88,1.55c-1.15,0.29-2.31,0.27-3.45,0.02c-0.91-0.2-0.85-1.02-0.83-1.73c0.11-3.79,0.13-7.57,0.01-11.36 c-0.01-0.46-0.06-0.91-0.09-1.37c-0.05-0.87-0.47-1.18-1.37-1.19c-1.23-0.01-2.46,0.17-3.71-0.19c-1.18-0.34-1.58-1.63-1.42-3.06 c0.13-1.17,1.15-0.99,1.95-1c2.41-0.02,4.83-0.01,7.24-0.01C101.48,17.71,101.48,17.69,101.48,17.66z"></path> <path class="st2" d="M279.49,17.63c0.33,0.26,0.73,0.05,1.08,0.17c0.62,0.2,1.03,0.58,0.9,1.28c-0.89,4.74-0.31,9.53-0.42,14.29 c-0.02,0.92-0.1,1.85,0.15,2.8c0.2,0.75-0.31,1.4-1.17,1.57c-0.92,0.18-1.86,0.03-2.8,0.17c-0.63,0.1-1.48-0.56-1.48-1.63 c0-1.12,0.23-2.21,0.25-3.31c0.06-3.03,0.08-6.07-0.01-9.1c-0.04-1.39-0.24-2.78-0.22-4.19c0.01-0.68,0.12-1.23,0.79-1.53 C277.53,17.98,278.51,17.8,279.49,17.63z"></path> <path class="st0" d="M516.8,204.31c1.65-0.19,2.33,0.78,2.94,1.79c0.66,1.09,1.21,2.24,1.83,3.35c0.29,0.51,0.62,1.03,1.32,0.96 c0.66-0.06,0.75-0.62,1.02-1.1c0.8-1.43,1.8-2.73,2.55-4.2c0.5-0.98,2.61-1.21,3.56-0.58c0.86,0.57,0.27,1.35-0.01,1.77 c-1.23,1.84-2.05,4-3.43,5.63c-1.23,1.44-1.53,2.98-2.02,4.59c-0.18,0.59-0.15,1.12,0,1.7c0.22,0.86-0.14,1.57-0.88,2.03 c-0.75,0.47-1.58,0.6-2.36,0.09c-0.78-0.5-0.82-1.28-0.59-2.11c0.59-2.13-0.28-3.98-1.13-5.84c-0.57-1.26-1.43-2.29-2.29-3.36 c-0.72-0.89-1.19-2-1.88-2.96c-0.78-1.08-0.45-1.62,0.86-1.76C516.54,204.29,516.79,204.31,516.8,204.31z"></path> <path class="st2" d="M276.61,17.62c-0.52-1.05-0.52-2.06,0.36-2.93c0.76-0.76,1.57-1.48,2.32-2.24c0.62-0.63,1.39-0.4,2.12-0.42 c0.74-0.03,1.49,0.01,2.24,0c0.39-0.01,0.61,0.22,0.78,0.51c0.2,0.33,0.03,0.61-0.22,0.75c-1.81,1.02-3.22,2.55-4.86,3.78 C278.56,17.84,277.52,17.41,276.61,17.62z"></path> <path class="st2" d="M750.82,203.24c-1.22-0.03-2.89-1.19-2.83-1.97c0.07-0.92,1.65-1.84,3.09-1.8c1.21,0.03,2.15,0.72,2.14,1.58 C753.21,201.92,751.73,203.26,750.82,203.24z"></path> <path class="st3" d="M144.79,180.51c1.41-1.95,3.11-3.63,4.94-5.18C148.48,177.44,146.79,179.12,144.79,180.51z"></path> <path class="st2" d="M778.14,216.88c0.83-0.84,1.82-0.84,2.52-0.03c0.21,0.25,0.34,0.46,0.01,0.71 C780.06,218.01,778.65,217.64,778.14,216.88C778.14,216.88,778.14,216.88,778.14,216.88z"></path> <path class="st3" d="M745.07,205.2c-0.45,0.2-0.91,0.37-1.26,0.76c-0.24,0.26-0.62,0.38-0.85,0.01c-0.22-0.35,0.15-0.54,0.39-0.63 c0.46-0.17,0.81-0.6,1.35-0.57C744.82,204.91,744.94,205.05,745.07,205.2z"></path> <path class="st3" d="M276.61,17.62c0.91-0.22,1.95,0.22,2.74-0.56c0.05,0.19,0.09,0.38,0.14,0.56c-0.98,0.18-1.96,0.35-2.94,0.53 C276.39,17.96,276.44,17.78,276.61,17.62z"></path> <path class="st3" d="M737.59,119.66c-0.56-0.7-0.7-1.39,0.07-2.05C737.64,118.3,737.62,118.98,737.59,119.66z"></path> <path class="st3" d="M737.62,121.9c-0.44-0.26-0.65-0.53-0.04-0.83C737.76,121.34,737.73,121.62,737.62,121.9z"></path> <path class="st3" d="M144.26,180.97c0.05-0.29,0.2-0.47,0.53-0.46C144.68,180.75,144.62,181.03,144.26,180.97z"></path> <path class="st3" d="M745.15,204.44c-0.09-0.14-0.13-0.27,0.07-0.34C745.35,204.25,745.29,204.35,745.15,204.44z"></path> <path class="st3" d="M143.83,181.25c0.09-0.16,0.18-0.32,0.41-0.27C144.14,181.11,144.07,181.31,143.83,181.25z"></path> <polygon class="st3" points="225.08,104.64 225.16,104.64 225.09,104.65 "></polygon> <polygon class="st3" points="693.45,91.87 693.49,91.88 693.45,91.91 693.39,91.89 "></polygon> <polygon class="st3" points="218.06,37.91 218.11,37.86 218.12,37.93 218.08,37.97 "></polygon> <path class="st2" d="M462.17,216.94c1.16-0.09,2.25-0.29,3.25-0.91c0.27-0.17,0.75-0.11,1.07,0.13c0.28,0.21,0.75,0.34,0.65,0.81 c-0.1,0.46-0.47,0.66-0.93,0.66C464.84,217.66,463.51,217.45,462.17,216.94z"></path> <path class="st2" d="M72.65,22.63c0.98-0.15,1.45,0.18,1.4,0.8c-0.06,0.79-0.75,1.03-1.45,0.96c-0.43-0.04-0.84-0.31-1.28-0.41 c-0.39-0.09-0.93,0.01-0.92-0.57c0.01-0.46,0.56-0.42,0.88-0.52C71.82,22.72,72.4,22.67,72.65,22.63z"></path> <path d="M630.49,121.18c0-1.71-0.39-3.53,0.09-5.09c0.74-2.39,1.73-4.75,3.39-6.77c3.15-3.82,7.09-5.98,12.03-6.6 c7.61-0.97,13.64,1.75,18.01,7.84c1.69,2.36,2.71,5.17,2.81,8.32c0.09,2.7,0.05,5.33-0.59,7.94c-1.12,4.59-3.57,8.32-7.61,10.81 c-3.58,2.21-7.54,3-11.76,2.7c-4.8-0.34-8.94-2.11-12.09-5.73c-2.87-3.3-4.72-7.11-4.44-11.67c0.04-0.58,0-1.17,0-1.75 C630.4,121.18,630.45,121.18,630.49,121.18z"></path> <path d="M519.14,123.45c-0.08-0.01-0.17-0.02-0.25-0.02c-3.01,0.11-2.9,0.59-2.9-2.92c0-5.08,0-10.16,0.01-15.24 c0.01-2.04,0.41-2.41,2.42-2.38c2.16,0.04,4.36-0.16,6.49,0.15c2.61,0.39,5.28-0.23,7.86,0.68c3.86,1.37,6.66,4.08,6.73,8.52 c0.02,1.45,0.04,2.89-0.43,4.32c-1.11,3.38-4.19,5.71-7.69,6.24c-2.5,0.38-4.98,0.67-7.5,0.62c-0.41-0.56-0.83-0.56-1.24,0.01 c-0.93-0.11-1.85-0.1-2.78,0.01C519.58,123,519.44,123,519.14,123.45z"></path> <path class="st3" d="M522.64,123.43c0.41-0.57,0.82-0.57,1.24-0.01C523.46,123.55,523.05,123.55,522.64,123.43z"></path> <path class="st3" d="M519.14,123.45c0.3-0.45,0.43-0.45,0.72-0.01C519.62,123.55,519.38,123.55,519.14,123.45z"></path> <path d="M82.73,108.21c-0.87-2.23-1.26-4.55-1.47-6.94c-0.2-2.23-0.64-4.45-0.95-6.67c-0.07-0.53-0.03-1.08-0.05-1.62 c0.46-0.53,0.68-1.77,1.7-0.98c1.3,1.01,2.81,1.31,4.3,1.74c2.63,0.75,5.02,2.16,7.76,2.66c2.1,0.38,4.14,1.23,6.25,1.49 c2.33,0.29,4.64,0.74,6.92,1.22c1.48,0.31,2.97,0.17,4.41,0.53c3.45,0.86,6.98,1.17,10.5,1.3c6.61,0.24,13.22,0.39,19.82-0.41 c1.14-0.14,2.32-0.02,3.46-0.18c1.51-0.22,2.99-0.84,4.49-0.86c2.52-0.02,4.79-1.12,7.25-1.46c2.4-0.33,4.84-1.06,7.21-1.86 c3.05-1.03,6.18-1.85,9.04-3.32c1.11-0.57,1.89-0.96,2.64,0.31c-0.15,3.36-0.61,6.68-1.29,9.97c-0.29,1.41-0.36,2.87-0.91,4.22 c-0.35,1.68-1.77,2.16-3.09,2.7c-2.03,0.83-4.08,1.6-6.13,2.38c-1.45,0.56-2.88,1.2-4.38,1.61c-1.63,0.44-3.31,0.8-4.9,1.29 c-4.43,1.35-9.01,1.71-13.53,2.46c-2.81,0.47-5.72,0.46-8.59,0.53c-6.15,0.16-12.26-0.14-18.38-0.9c-2.93-0.37-5.78-1.03-8.69-1.45 c-4.17-0.6-8.2-1.89-12.2-3.18c-1.46-0.47-2.95-0.81-4.39-1.27c-1.38-0.45-2.57-1.39-4.04-1.76 C84.48,109.48,83.49,109,82.73,108.21z"></path> <path d="M88.24,130.3c-1.47-4.45-2.69-8.98-3.74-13.55c-0.13-0.55-0.57-1.01-0.46-1.63c0.03-0.12,0.09-0.24,0.09-0.35 c-0.04-0.85,0.66-1.26,1.18-1.59c0.47-0.3,0.78,0.47,1.13,0.77c0.83,0.71,1.65,1.36,2.84,1.27c0.24-0.02,0.51,0.02,0.72,0.12 c2.65,1.3,5.58,1.72,8.37,2.55c3.88,1.15,7.9,1.79,11.83,2.8c2.78,0.72,5.62,0.62,8.43,0.99c5.08,0.66,10.22,0.53,15.33,0.51 c3.12-0.01,6.15-0.98,9.28-0.92c2.49,0.05,5-0.37,7.37-0.95c1.95-0.48,4.01-0.75,5.9-1.54c0.95-0.4,2-0.22,2.95-0.7 c1.74-0.87,3.64-1.31,5.49-1.86c1.42-0.42,2.83-0.85,4.14-1.53c0.93-0.48,2.43-0.33,2.96,0.39c-0.17,0.18-0.32,0.36-0.3,0.64 c0.14,1.35-0.27,2.58-0.72,3.83c-1.31,3.65-2.23,7.4-3.15,11.16c-0.5,1.3-1.59,1.8-2.84,2.11c-2.62,0.66-5.03,1.93-7.67,2.62 c-3.03,0.79-5.94,2.04-9.09,2.36c-1.11,0.12-2.26,0.13-3.33,0.4c-2.47,0.64-5.01,0.82-7.5,0.79c-7.79-0.08-15.62,0.63-23.35-0.96 c-2.07-0.43-4.19-0.33-6.29-0.85c-1.89-0.47-3.79-1-5.77-1.22c-1.9-0.21-3.68-1.06-5.58-1.48c-1.85-0.41-3.64-1.27-5.52-1.73 C89.6,132.44,88.86,131.44,88.24,130.3z"></path> <path d="M80.72,88.18c-0.04-0.29-0.09-0.57-0.13-0.86c-0.43-3.3,0.94-5.21,4.23-5.79c1.05-0.18,1.86-0.83,2.82-1.21 c3.18-1.24,6.48-2.09,9.72-3.13c1.4-0.45,2.78-0.8,4.24-0.96c1.31-0.15,2.16,0.39,2.35,1.5c0.34,2.02,1.84,2.71,3.4,3.17 c2.07,0.6,3.99,1.59,6.08,2.09c2.51,0.59,5.04,1.12,7.59,1.48c4.21,0.58,8.45,0.53,12.67,0.26c6.08-0.4,11.85-2.04,17.32-4.75 c0.57-0.28,0.7-0.72,0.76-1.3c0.24-2.15,0.27-2.07,2.42-2.18c1.74-0.09,3.27,0.55,4.91,0.92c3.38,0.75,6.64,1.82,9.85,3.08 c1.81,0.71,3.51,1.72,5.44,2.14c0.66,0.14,1.08,0.64,1.14,1.33c0.1,1.06,0.15,2.11,0.22,3.17c-0.49,1.19-1.29,1.89-2.67,1.74 c-0.28-0.03-0.65,0.01-0.84,0.17c-1.36,1.18-3.05,1.53-4.71,2.04c-3.35,1.04-6.57,2.42-10.06,3.07c-1.78,0.34-3.61,0.63-5.35,1.11 c-2.65,0.73-5.37,1.15-8.06,1.42c-5.92,0.59-11.88,0.8-17.84,0.65c-3.7-0.1-7.42-0.26-11.08-0.75c-2.99-0.41-5.99-0.91-8.94-1.67 c-2.88-0.74-5.96-0.65-8.7-2.04c-0.07-0.04-0.16-0.03-0.24-0.03c-2.62-0.2-5.05-1.14-7.52-1.9C86.75,90,83.85,88.7,80.72,88.18z"></path> <path d="M165.01,139.35c-1.33,1.77-1.62,3.98-2.48,5.95c-0.07,0.15-0.05,0.35-0.13,0.47c-1.51,2.21-2.01,4.93-3.64,7.07 c-1.12,1.51-2.97,1.39-4.51,1.89c-0.88,0.29-1.52,1.04-2.46,1.11c-1.54,0.11-3.01,0.53-4.48,1c-0.91,0.3-1.82,0.65-2.75,0.78 c-2.83,0.39-5.68,0.72-8.52,1.02c-9.72,1.02-19.28-0.33-28.78-2.13c-2.78-0.53-5.46-1.58-8.18-2.39c-0.63-0.19-1.08-0.58-1.42-1.15 c-0.53-0.89-1.09-1.76-1.64-2.63c-1.82-3.93-3.5-7.93-5.02-11.98c0.26-1.23,0.61-1.42,1.73-1c0.58,0.22,1.16,0.52,1.75,0.57 c3.6,0.3,6.87,1.99,10.44,2.46c2.26,0.3,4.5,0.75,6.71,1.3c2.43,0.61,4.92,0.38,7.37,0.74c6.04,0.87,12.12,0.53,18.19,0.48 c1.6-0.02,3.23,0,4.79-0.29c3.75-0.71,7.53-1.29,11.25-2.23c3-0.75,5.9-1.94,9-2.29c0.34-0.04,0.67-0.31,0.98-0.52 c0.44-0.29,0.84-0.96,1.36-0.69c0.57,0.31,0.48,1.08,0.5,1.7C165.07,138.85,165.03,139.1,165.01,139.35z"></path> <path d="M153.9,162.29c-1.12,1.79-2.21,3.6-3.37,5.36c-0.65,0.98-1.43,1.88-2.15,2.82c-1.96,0.13-3.47,1.44-5.26,2.05 c-2.49,0.86-4.96,1.85-7.55,2.25c-5.04,0.78-10.11,0.57-15.18,0.04c-1.38-0.15-2.66-0.62-3.93-1.06c-2.04-0.71-4.14-1.17-6.22-1.75 c0,0,0,0,0,0c-0.74-0.68-1.59-1.19-2.48-1.65c-0.09-0.15-0.18-0.3-0.27-0.45c0.05-0.13,0-0.19-0.13-0.19 c-1.17-1.54-2.35-3.07-3.52-4.61c-0.77-1.02-1.09-2.28-1.82-3.34c-0.38-0.54-1.16-0.86-1.08-1.7c0.15-0.68,0.61-0.85,1.27-0.91 c1.02-0.09,1.79,0.6,2.7,0.72c2.56,0.33,5.01,1.14,7.59,1.42c3.26,0.36,6.5,1.03,9.78,1.07c7.11,0.08,14.26,0.64,21.31-0.89 c1.06-0.23,2.18-0.2,3.24-0.52c2.45-0.73,4.89-1.46,7.34-2.2c0.3-0.09,0.65-0.15,0.73,0.2c0.16,0.7,0.51,1.47-0.2,2.09 C154.31,161.4,154.03,161.79,153.9,162.29z"></path> <path class="st0" d="M80.72,88.18c3.13,0.53,6.02,1.82,9.03,2.75c2.47,0.76,4.91,1.7,7.52,1.9c0.08,0.01,0.18,0,0.24,0.03 c2.74,1.39,5.82,1.3,8.7,2.04c2.95,0.76,5.95,1.27,8.94,1.67c3.66,0.5,7.38,0.66,11.08,0.75c5.95,0.16,11.91-0.06,17.84-0.65 c2.69-0.27,5.41-0.69,8.06-1.42c1.74-0.48,3.57-0.77,5.35-1.11c3.49-0.65,6.71-2.04,10.06-3.07c1.66-0.51,3.35-0.86,4.71-2.04 c0.19-0.17,0.56-0.2,0.84-0.17c1.38,0.15,2.18-0.56,2.67-1.74c0.14,0.45,0.08,0.91-0.05,1.34c-0.38,1.24-0.7,2.45,0.25,3.62 c0.22,0.27,0.2,0.7,0.04,1.07c-0.75-1.27-1.53-0.88-2.64-0.31c-2.87,1.47-6,2.29-9.04,3.32c-2.37,0.8-4.81,1.53-7.21,1.86 c-2.46,0.34-4.72,1.44-7.25,1.46c-1.5,0.01-2.98,0.64-4.49,0.86c-1.14,0.16-2.32,0.04-3.46,0.18c-6.59,0.8-13.21,0.65-19.82,0.41 c-3.52-0.13-7.05-0.44-10.5-1.3c-1.44-0.36-2.93-0.22-4.41-0.53c-2.28-0.47-4.58-0.93-6.92-1.22c-2.11-0.26-4.14-1.11-6.25-1.49 c-2.74-0.49-5.13-1.9-7.76-2.66c-1.49-0.43-3-0.73-4.3-1.74c-1.02-0.79-1.23,0.45-1.7,0.98c-0.09-0.45-0.15-0.9,0.12-1.3 C81.12,90.57,81.07,89.39,80.72,88.18z"></path> <path class="st0" d="M172.05,115.09c-0.54-0.72-2.04-0.87-2.96-0.39c-1.31,0.68-2.72,1.11-4.14,1.53 c-1.85,0.55-3.76,0.99-5.49,1.86c-0.95,0.48-2,0.3-2.95,0.7c-1.88,0.79-3.94,1.06-5.9,1.54c-2.36,0.58-4.87,0.99-7.37,0.95 c-3.14-0.06-6.16,0.91-9.28,0.92c-5.12,0.02-10.25,0.15-15.33-0.51c-2.8-0.37-5.65-0.27-8.43-0.99c-3.92-1.01-7.95-1.65-11.83-2.8 c-2.79-0.83-5.72-1.25-8.37-2.55c-0.21-0.1-0.48-0.14-0.72-0.12c-1.19,0.1-2.01-0.56-2.84-1.27c-0.36-0.31-0.67-1.07-1.13-0.77 c-0.52,0.33-1.22,0.75-1.18,1.59c0.01,0.12-0.06,0.23-0.09,0.35c-0.58-1.12-0.39-2.25,0.01-3.35c0.28-0.75,0.27-1.26-0.45-1.8 c-0.52-0.39-1.25-0.86-0.88-1.77c0.76,0.79,1.75,1.27,2.76,1.53c1.47,0.37,2.66,1.31,4.04,1.76c1.45,0.47,2.94,0.81,4.39,1.27 c4,1.29,8.03,2.58,12.2,3.18c2.91,0.42,5.77,1.08,8.69,1.45c6.12,0.76,12.23,1.06,18.38,0.9c2.87-0.07,5.77-0.06,8.59-0.53 c4.52-0.75,9.1-1.11,13.53-2.46c1.59-0.49,3.28-0.84,4.9-1.29c1.49-0.41,2.92-1.05,4.38-1.61c2.05-0.78,4.1-1.55,6.13-2.38 c1.32-0.54,2.74-1.02,3.09-2.7c0.05,1.2-0.19,2.29-1.21,3.07c-0.12,0.09-0.29,0.32-0.26,0.37c0.59,0.96,0.06,2.04,0.3,2.98 C172.83,114.53,172.61,114.8,172.05,115.09z M160.01,116.12c1.21,0.37,2.08-0.23,3.01-0.51c0.23-0.07,0.49-0.21,0.46-0.52 c-0.05-0.4-0.4-0.35-0.68-0.36C161.7,114.7,160.81,115.13,160.01,116.12z"></path> <path class="st0" d="M165.01,139.35c0.02-0.25,0.06-0.5,0.05-0.75c-0.02-0.62,0.07-1.39-0.5-1.7c-0.52-0.28-0.92,0.4-1.36,0.69 c-0.31,0.2-0.64,0.48-0.98,0.52c-3.1,0.36-6,1.54-9,2.29c-3.73,0.93-7.5,1.51-11.25,2.23c-1.56,0.3-3.19,0.28-4.79,0.29 c-6.07,0.06-12.16,0.39-18.19-0.48c-2.45-0.35-4.93-0.12-7.37-0.74c-2.21-0.56-4.46-1.01-6.71-1.3c-3.57-0.47-6.83-2.16-10.44-2.46 c-0.6-0.05-1.18-0.36-1.75-0.57c-1.13-0.42-1.47-0.23-1.73,1c-0.87-0.64-0.82-1.56-0.74-2.48c0.1-1.29,0.07-2.41-1.27-3.23 c-0.73-0.44-0.88-1.45-0.74-2.36c0.62,1.14,1.36,2.14,2.71,2.47c1.88,0.46,3.67,1.32,5.52,1.73c1.9,0.42,3.68,1.27,5.58,1.48 c1.98,0.22,3.88,0.76,5.77,1.22c2.09,0.52,4.22,0.42,6.29,0.85c7.73,1.6,15.56,0.88,23.35,0.96c2.49,0.03,5.03-0.16,7.5-0.79 c1.07-0.28,2.22-0.29,3.33-0.4c3.15-0.33,6.06-1.57,9.09-2.36c2.63-0.69,5.04-1.96,7.67-2.62c1.25-0.31,2.34-0.81,2.84-2.11 c0.15,1.18-0.43,2.07-1.19,2.85c-0.42,0.43-0.62,0.9-0.49,1.45C166.6,136.69,166.06,138.09,165.01,139.35z"></path> <path d="M134.39,73.28c3.72,0.13,7.33-0.69,10.96-1.3c0.97-0.16,1.82-0.9,2.94-0.74c0.51,0.08,0.7,0.21,0.75,0.74 c0.13,1.48-0.5,2.82-0.73,4.23c-0.12,0.7-0.74,1.09-1.42,1.26c-3.88,1.01-7.67,2.46-11.65,2.9c-3.05,0.34-6.16,0.72-9.27,0.2 c-1.46-0.25-2.96-0.09-4.45-0.28c-3.11-0.41-6.13-1.15-9.11-2.07c-1.02-0.31-2.06-0.57-3.04-0.97c-1.1-0.45-1.98-1.06-1.86-2.55 c0.07-0.83-0.17-1.77-0.53-2.53c-0.38-0.81-0.19-0.88,0.56-0.92c1.24-0.05,2.33,0.47,3.49,0.76c4.88,1.24,9.87,1.44,14.87,1.38 c2.83-0.03,5.66-0.08,8.49-0.11c0,0,0.01,0.06,0.01,0.06L134.39,73.28z"></path> <path class="st0" d="M153.9,162.29c0.13-0.5,0.41-0.89,0.8-1.23c0.71-0.62,0.36-1.39,0.2-2.09c-0.08-0.36-0.43-0.29-0.73-0.2 c-2.44,0.74-4.89,1.47-7.34,2.2c-1.06,0.32-2.17,0.29-3.24,0.52c-7.06,1.53-14.2,0.97-21.31,0.89c-3.28-0.04-6.52-0.71-9.78-1.07 c-2.58-0.28-5.03-1.09-7.59-1.42c-0.91-0.12-1.68-0.81-2.7-0.72c-0.65,0.06-1.11,0.23-1.27,0.91c-0.69-0.05-0.71-0.65-0.8-1.1 c-0.1-0.5-0.37-0.93-0.48-1.38c-0.41-1.82-1.66-3.1-2.72-4.5c-0.62-0.82-1.04-1.69-0.93-2.74c0.55,0.88,1.11,1.74,1.64,2.63 c0.34,0.57,0.79,0.96,1.42,1.15c2.72,0.82,5.4,1.87,8.18,2.39c9.5,1.8,19.06,3.15,28.78,2.13c2.85-0.3,5.69-0.63,8.52-1.02 c0.94-0.13,1.84-0.49,2.75-0.78c1.46-0.48,2.93-0.89,4.48-1c0.94-0.07,1.58-0.82,2.46-1.11c1.54-0.5,3.39-0.38,4.51-1.89 c-0.01,0.16,0.05,0.38-0.03,0.47c-1.74,1.83-1.96,4.27-2.72,6.5C155.65,160.84,154.91,161.73,153.9,162.29z"></path> <path class="st0" d="M110.25,172.01c2.07,0.58,4.17,1.05,6.22,1.75c1.27,0.44,2.55,0.91,3.93,1.06c5.06,0.53,10.14,0.74,15.18-0.04 c2.59-0.4,5.06-1.4,7.55-2.25c1.79-0.61,3.3-1.93,5.26-2.05c-0.5,0.49-0.96,1.04-1.52,1.45c-0.97,0.71-1.6,1.64-2.13,2.69 c-0.28,0.54-0.63,1.07-1.37,1.14c-0.51,0.04-0.7,0.47-0.6,0.92c0.25,1.2-0.43,1.89-1.34,2.36c-0.57,0.3-0.87,1.04-1.64,0.97 c0.04-0.63,0.58-0.85,0.97-1.2c0.67-0.58,0.45-1-0.26-1.28c-0.44-0.17-0.87-0.06-1.32,0.11c-2.14,0.83-4.36,1.29-6.65,1.43 c-2.16,0.14-4.34-0.13-6.47,0.04c-3.55,0.29-6.82-0.53-10.04-1.84c-0.23-0.09-0.44-0.3-0.67-0.11c-0.22,0.19-0.16,0.48-0.06,0.7 c0.28,0.64,0.6,1.27,0.9,1.9c-1.77-0.65-2.6-2.25-3.47-3.69c-0.75-1.24-1.29-2.6-2.35-3.64 C110.25,172.36,110.28,172.15,110.25,172.01z"></path> <path d="M116.17,179.77c-0.3-0.63-0.62-1.26-0.9-1.9c-0.1-0.22-0.16-0.51,0.06-0.7c0.23-0.2,0.44,0.01,0.67,0.11 c3.22,1.3,6.48,2.12,10.04,1.84c2.13-0.17,4.31,0.1,6.47-0.04c2.29-0.15,4.51-0.61,6.65-1.43c0.45-0.18,0.88-0.28,1.32-0.11 c0.71,0.27,0.93,0.7,0.26,1.28c-0.4,0.34-0.93,0.57-0.97,1.2c0,0,0,0,0,0c-0.22,0.02-0.33,0.13-0.29,0.36 c-2.29,1.57-4.59,3.12-7.04,4.45c-2.94,1.59-5.75,1.63-8.71-0.05c-2.39-1.35-4.52-3.09-6.94-4.38 C116.54,180.25,116.37,179.97,116.17,179.77z"></path> <path class="st3" d="M107.77,170.36c0.89,0.45,1.74,0.96,2.48,1.65C109.15,171.87,108.26,171.42,107.77,170.36z"></path> <path class="st3" d="M139.48,180.35c-0.04-0.23,0.08-0.34,0.29-0.36C139.79,180.21,139.64,180.28,139.48,180.35z"></path> <path class="st3" d="M107.36,169.72c0.13,0,0.18,0.06,0.13,0.19C107.37,169.9,107.31,169.85,107.36,169.72z"></path> <polygon class="st3" points="134.39,73.28 134.39,73.34 134.38,73.28 "></polygon> <path d="M290.45,127.75c-2.25,0-4.49,0.01-6.74,0c-1.71-0.01-1.94-0.45-1.3-1.99c2.48-5.93,4.91-11.88,7.34-17.83 c0.18-0.43,0.38-0.83,0.69-1.17c0.35-0.38,0.69-0.33,0.8,0.19c0.57,2.89,2.03,5.45,3.04,8.18c1.04,2.78,2.43,5.42,3.29,8.28 c0.24,0.8,0.84,1.49,1.14,2.29c0.59,1.57,0.14,2.13-1.53,2.12c-2.25-0.02-4.49,0-6.74,0C290.45,127.78,290.45,127.76,290.45,127.75 z"></path> <path d="M698.07,216.23c-1.73-0.02-1.75-0.05-1.08-1.47c0.37-0.79,0.67-1.59,0.77-2.48c0.17-1.54,0.82-2.13,3.01-2.53 c1.34-0.24,2.62-0.53,3.8-1.28c0.77-0.49,1.69-0.3,2.55-0.15c0.48,0.09,0.65,0.44,0.61,0.93c-0.06,0.65-0.3,1.19-0.74,1.67 c-2.01,2.16-4.46,3.69-7.09,4.96C699.3,216.18,698.65,216.35,698.07,216.23z"></path> <path d="M700.24,205.4c0.41-1.59,0.93-3.34,2.23-4.7c1.06-1.11,2.32-2.01,3.56-2.92c0.47-0.35,1.01-0.54,1.62-0.56 c0.61-0.02,1.19-0.03,1.48,0.63c0.3,0.69,0.16,1.27-0.42,1.78c-2.16,1.88-4.31,3.78-6.45,5.67c-0.31,0.27-0.61,0.56-0.92,0.84 c-0.24,0.23-0.47,0.53-0.85,0.35C700.09,206.31,700.26,205.92,700.24,205.4z"></path> <path d="M161.63,33.55c-3.69-0.16-6.15-2.51-5.8-6.07c0.31-3.09,2.07-5.66,6.89-5.47c2.28,0.09,4.91,3.28,4.54,6.5 C166.9,31.55,165.19,33.65,161.63,33.55z"></path> <path class="st3" d="M650.65,211.59c0.07,0.63-0.13,1.02-0.63,1.25c-0.05,0.02-0.24-0.12-0.25-0.2 C649.73,212.07,650.01,211.75,650.65,211.59z"></path> <path d="M251.01,25.4c0-3.7,0.47-4.04,4.29-3.1c1.94,0.48,3.04,2.82,2.2,4.63c-0.21,0.45-0.69,0.48-1.03,0.56 c-1.48,0.37-2.98,0.64-4.53,0.56c-0.81-0.04-1-0.32-0.94-1.03C251.05,26.48,251.01,25.94,251.01,25.4z"></path> <path d="M303.71,29.77c-2.36-0.02-2.59-0.36-1.75-2.59c0.32-0.85,0.69-1.67,1.01-2.52c0.23-0.59,0.6-0.58,0.85-0.11 c0.6,1.12,1.22,2.26,1.62,3.46C305.9,29.38,305.43,29.79,303.71,29.77z"></path> <path d="M129.35,29.8c-1.92,0-2.25-0.45-1.58-2.28c0.33-0.89,0.79-1.72,1.17-2.59c0.36-0.82,0.73-0.52,1.02,0 c0.39,0.68,0.7,1.4,1.05,2.1C132.08,29.15,131.69,29.8,129.35,29.8z"></path> <path d="M496.54,213.9c0.79-0.12,1.58-0.11,2.35,0.13c0.94,0.3,1.71,0.92,1.66,1.92c-0.05,1.01-0.89,1.61-1.88,1.72 c-1.15,0.12-2.31-0.01-3.47,0.18c-0.8,0.13-2.01-1.13-2.07-1.96c-0.08-1.03,0.52-1.73,1.79-1.97 C495.45,213.82,496,213.9,496.54,213.9z"></path> <path d="M496.35,210.89c-0.54,0-1.09,0.09-1.61-0.02c-1.01-0.21-1.67-0.97-1.63-1.93c0.04-1.01,0.95-1.52,1.87-1.69 c1.07-0.2,2.15-0.05,3.19,0.26c0.83,0.25,1.71,0.69,1.53,1.66c-0.16,0.88-0.88,1.57-1.86,1.73c-0.48,0.08-0.99,0.01-1.49,0.01 C496.35,210.91,496.35,210.9,496.35,210.89z"></path> <path class="st2" d="M160.01,116.12c0.8-0.99,1.69-1.41,2.79-1.38c0.28,0.01,0.63-0.04,0.68,0.36c0.04,0.3-0.23,0.44-0.46,0.52 C162.09,115.89,161.22,116.49,160.01,116.12z"></path> </g> </svg>